<svg id="レイヤー_1" data-name="レイヤー 1" xmlns="http://www.w3.org/2000/svg" viewBox="0 0 742.8144 408"><defs><style>.cls-1{fill:#c23045;}.cls-2{fill:#da5826;}.cls-3{fill:#a3b21b;}.cls-4{fill:#13935a;}.cls-5{fill:#027884;}.cls-6{fill:#09628a;}.cls-7{fill:#145098;}.cls-8{fill:#693d8c;}.cls-9{fill:#862c74;}.cls-10{fill:#e3ad15;}.cls-11,.cls-12,.cls-13,.cls-14,.cls-28{fill:none;stroke:#636262;stroke-miterlimit:10;stroke-width:1.09166px;}.cls-12{stroke-dasharray:4.44558 4.44558;}.cls-13{stroke-dasharray:4.31184 4.31184;}.cls-14{stroke-dasharray:4.44555 4.44555;}.cls-15{fill:#0f53a0;}.cls-16{fill:#231815;}.cls-17{fill:#e78d1a;}.cls-18{fill:#4e4a34;}.cls-19{fill:#706518;}.cls-20{fill:#bbac00;}.cls-21{fill:#92871a;}.cls-22{fill:#575c74;}.cls-23{fill:#3b487a;}.cls-24{fill:#1b3788;}.cls-25{fill:#1c357d;}.cls-26{fill:#273267;}.cls-27{fill:#bbab00;}.cls-28{stroke-dasharray:4.44553 4.44553;}.cls-29{fill:#2b5094;}.cls-30{fill:#a2932f;}</style></defs><title>miyasuku</title><circle class="cls-1" cx="234.42818" cy="119.00733" r="30.27732" transform="translate(-21.07107 57.04404) rotate(-13.28251)"/><circle class="cls-2" cx="289.17912" cy="158.97978" r="30.27738" transform="translate(-28.79026 70.69272) rotate(-13.28254)"/><circle class="cls-3" cx="289.66382" cy="288.99617" r="30.27738" transform="translate(-58.64899 74.28216) rotate(-13.28254)"/><circle class="cls-4" cx="234.42788" cy="329.26372" r="30.27732" transform="translate(-69.37803 62.66853) rotate(-13.28251)"/><circle class="cls-5" cx="166.15347" cy="329.41023" r="30.27732" transform="translate(-71.2381 46.98622) rotate(-13.28251)"/><circle class="cls-6" cx="110.77063" cy="289.44023" r="30.27736" transform="translate(-172.22118 163.10174) rotate(-45)"/><circle class="cls-7" cx="89.49032" cy="224.53057" r="30.27738" transform="translate(-49.19266 26.56713) rotate(-13.28254)"/><circle class="cls-8" cx="110.34058" cy="159.52473" r="30.27732" transform="translate(-33.69951 29.61847) rotate(-13.28251)"/><circle class="cls-9" cx="166.15468" cy="119.17983" r="30.27732" transform="translate(-22.93708 41.36264) rotate(-13.28251)"/><circle class="cls-10" cx="310.51228" cy="223.99063" r="30.27732" transform="translate(-43.15593 77.33296) rotate(-13.28251)"/><polyline class="cls-11" points="200.14 368.97 200.14 371.153 197.957 371.153"/><line class="cls-12" x1="193.5107" y1="371.1533" x2="44.5839" y2="371.1533"/><polyline class="cls-11" points="42.361 371.153 40.178 371.153 40.178 368.97"/><line class="cls-13" x1="40.1777" y1="364.6582" x2="40.1777" y2="82.2329"/><polyline class="cls-11" points="40.178 80.077 40.178 77.894 42.361 77.894"/><line class="cls-12" x1="46.8066" y1="77.8936" x2="195.7334" y2="77.8936"/><polyline class="cls-11" points="197.957 77.894 200.14 77.894 200.14 80.077"/><line class="cls-13" x1="200.1396" y1="84.3887" x2="200.1396" y2="366.814"/><polyline class="cls-11" points="360.101 368.97 360.101 371.153 357.917 371.153"/><line class="cls-14" x1="353.4716" y1="371.1533" x2="204.5459" y2="371.1533"/><polyline class="cls-11" points="202.323 371.153 200.14 371.153 200.14 368.97"/><line class="cls-13" x1="200.1396" y1="364.6582" x2="200.1396" y2="82.2329"/><polyline class="cls-11" points="200.14 80.077 200.14 77.894 202.323 77.894"/><line class="cls-14" x1="206.7685" y1="77.8936" x2="355.6943" y2="77.8936"/><polyline class="cls-11" points="357.917 77.894 360.101 77.894 360.101 80.077"/><line class="cls-13" x1="360.1005" y1="84.3887" x2="360.1005" y2="366.814"/><path class="cls-15" d="M67.49214,102.80957a15.17625,15.17625,0,0,0,5.39063,3.39258,6.62249,6.62249,0,0,0-1.06152,1.249,16.44958,16.44958,0,0,1-6.09864-4.6416H60.81148a13.62136,13.62136,0,0,1-6.16113,4.84961,5.06245,5.06245,0,0,0-1.01953-1.207,12.63213,12.63213,0,0,0,5.47363-3.64258H54.15132V101.54h5.24414V99.958H56.56539V98.85547h2.83007V97.33594H56.21187v-1.165h3.18359V94.77637h1.457V96.1709h4.74609V94.77637h1.47754V96.1709h3.16308v1.165H67.07613v1.51953h2.76758V99.958H67.07613v1.582h5.34863v1.26953ZM56.00386,96.64941h-1.499V92.90332H62.414v-1.541h1.56055v1.541h8.03418v3.74609h-1.54V94.21387H56.00386Zm2.93457,9.94825a50.0916,50.0916,0,0,1,9.57324,2.51855l-.666,1.29a43.92813,43.92813,0,0,0-9.57324-2.62207Zm2.45508-2.91407a21.83553,21.83553,0,0,1,4.87109,1.68653l-.666,1.082a23.55434,23.55434,0,0,0-4.8916-1.79Zm-.541-4.82812h4.74609V97.33594H60.8525Zm0,2.68457h4.74609V99.958H60.8525Z"/><path class="cls-15" d="M90.94234,108.7002c1.998,0,2.31055-.5625,2.56055-3.08008a5.10085,5.10085,0,0,0,1.54.582c-.35351,3.03906-.999,3.93359-4.05859,3.93359H82.90914c-3.35157,0-4.3711-.582-4.3711-3.05957V97.85645c-.4375.3955-.916.749-1.39453,1.10351a4.27307,4.27307,0,0,0-1.124-1.083,19.38782,19.38782,0,0,0,6.01562-6.57715l1.70606.334c-.22852.374-.47852.749-.72852,1.14453h5.14063l.292-.10449,1.04.666a21.9354,21.9354,0,0,1-1.95606,3.16407h5.86914v7.51269H91.83785v-.93652H80.07808v4.01758c0,1.29.4375,1.60254,2.72656,1.60254ZM82.05562,94.11035a21.814,21.814,0,0,1-2.06055,2.39356h5.72364a17.759,17.759,0,0,0,1.582-2.39356Zm-1.97754,7.5752H85.0107V97.919H80.07808ZM91.83785,97.919H86.55074v3.7666h5.28711Z"/><path class="cls-15" d="M104.7773,105.34863a23.38438,23.38438,0,0,1-4.95313,4.59961,7.80961,7.80961,0,0,0-1.374-1.06054,16.94555,16.94555,0,0,0,4.7666-4.1211Zm11.32227-.31152a15.95571,15.95571,0,0,0-1.37305-1.64453c-1.97754.0625-3.9961.125-5.97363.1875v6.78515h-1.60254v-6.74316c-3.10157.083-5.97364.14551-8.17969.208l-.167-1.56153c1.291-.0205,2.85156-.041,4.53808-.0625.582-.416,1.165-.874,1.78907-1.373a27.83,27.83,0,0,0-4.78614-3.49707l1.04-.957c.458.249.93653.541,1.415.832a28.13188,28.13188,0,0,0,2.748-3.10059c-1.93555.10352-3.89258.1875-5.72364.22852a5.41231,5.41231,0,0,0-.375-1.37305,109.60171,109.60171,0,0,0,15.25586-1.291l1.124,1.291a75.26839,75.26839,0,0,1-8.49121,1.01953l.22851.125a38.00883,38.00883,0,0,1-3.62109,3.8711,20.147,20.147,0,0,1,2.37207,1.83105,53.89165,53.89165,0,0,0,5.14062-5.03613l1.457.791a74.17311,74.17311,0,0,1-7.30469,6.61817c2.47656-.042,5.16113-.1045,7.80469-.14551-.749-.75-1.54-1.457-2.29-2.082l1.249-.79a34.18039,34.18039,0,0,1,5.09961,4.95312Zm-3.9336-.35449a44.45725,44.45725,0,0,1,5.16211,4.26758l-1.35351.957a39.02031,39.02031,0,0,0-5.05762-4.3711Z"/><path class="cls-16" d="M63.14839,46.82324v2.44824H41.3066V46.82324Z"/><path class="cls-16" d="M76.58,48.8877V57.168c0,.93652-.1914,1.48828-.792,1.80078a6.9441,6.9441,0,0,1-2.80762.33594,6.20056,6.20056,0,0,0-.60058-1.77637c.88769.02344,1.72851.02344,1.96777,0,.28906,0,.38477-.0957.38477-.36035V49.10352l-3.91211.43164c-.02442,3.07226-.28809,7.15332-1.96875,9.74511a7.08742,7.08742,0,0,0-1.53613-1.00781c1.48828-2.40039,1.7041-5.76074,1.72851-8.54492l-1.48828.168-.21582-1.82422,1.7041-.168V40.53516h2.11231a26.2038,26.2038,0,0,0,.792-3.28907l2.39941.45606c-.38281.96-.791,1.99219-1.127,2.833H76.58v6.60058l1.05664-.09668.02344,1.72852Zm-1.84765-1.56055v-5.0166H70.82027v5.4248ZM72.788,43.0791a10.2884,10.2884,0,0,1,1.2959,3.07227l-1.46387.624a10.24405,10.24405,0,0,0-1.20019-3.14453Zm.55176,12.40918H71.99605V49.96777H73.3398Zm15.12109-7.56055a16.018,16.018,0,0,1-3.624,7.15235,13.03559,13.03559,0,0,0,4.99316,2.376,8.533,8.533,0,0,0-1.34472,1.82422,13.72322,13.72322,0,0,1-5.16016-2.78418,16.75279,16.75279,0,0,1-5.13672,2.832,8.141,8.141,0,0,0-1.22363-1.87207A14.33614,14.33614,0,0,0,81.81246,54.96a17.08839,17.08839,0,0,1-2.80762-5.08887l1.584-.35937H78.18843V47.51953h8.52051l.38477-.0957Zm-7.17578-6.60058A7.17982,7.17982,0,0,1,78.957,47.18359a8.456,8.456,0,0,0-1.6084-1.29687,5.31513,5.31513,0,0,0,1.94433-4.60742V38.18262h7.17579V43.583c0,.4082,0,.67187.09668.74414a.46737.46737,0,0,0,.33593.0957h.52832a.89067.89067,0,0,0,.40821-.07129.76647.76647,0,0,0,.23925-.52832c.04786-.3125.07227-1.03222.09668-1.94433a4.91942,4.91942,0,0,0,1.60743.86425,13.58577,13.58577,0,0,1-.26368,2.32813,1.45039,1.45039,0,0,1-.76757.86426,2.91458,2.91458,0,0,1-1.15235.21582H86.373a1.99648,1.99648,0,0,1-1.416-.48047c-.35938-.33594-.50391-.76758-.50391-2.13574V40.127h-3.168Zm-.45605,8.18457a12.68327,12.68327,0,0,0,2.44824,4.10449,12.9205,12.9205,0,0,0,2.49609-4.10449Z"/><path class="cls-16" d="M110.57417,56.97656c2.23243,0,2.61719-.55273,2.92872-3.36035a6.85878,6.85878,0,0,0,2.18457.81543c-.45606,3.57617-1.29688,4.6084-5.01661,4.6084H101.8857c-4.10449,0-5.35254-.74414-5.35254-3.8877v-9.9375q-.64746.54054-1.36719,1.08008a7.19579,7.19579,0,0,0-1.6084-1.584,21.90488,21.90488,0,0,0,6.8877-7.53614l2.44922.4795c-.24024.4082-.50391.8164-.76856,1.22461h5.3291l.43164-.12012,1.51172.9834a24.371,24.371,0,0,1-2.16015,3.48047h6.52929v8.85742h-2.28125V51.0957H98.76558v4.08008c0,1.48828.48047,1.80078,3.04883,1.80078Zm-9.83984-16.15332a31.64144,31.64144,0,0,1-2.06445,2.39942H104.622a18.2,18.2,0,0,0,1.60839-2.39942ZM98.76558,49.0791H103.83V45.23926H98.76558Zm12.7207-3.83984H106.038V49.0791h5.44824Z"/><path class="cls-16" d="M138.31832,57.168c.83984,0,.98437-.26367,1.08007-2.40039a4.89409,4.89409,0,0,0,1.99219.792c-.26367,2.92871-.91211,3.57715-2.832,3.57715h-3.57617c-2.4961,0-3.07227-.60059-3.07227-2.59277V54.168H128.8857c-.64746,2.87988-2.47168,4.39258-8.23242,5.16015a6.436,6.436,0,0,0-1.1045-1.91992c4.99219-.48047,6.50489-1.34375,7.05664-3.24023h-2.61621V44.32715H137.1191V54.168h-3.02539v2.35254c0,.57519.16894.64746,1.15234.64746ZM122.62105,46.03125H120.5566V41.03906h3.33691a15.21,15.21,0,0,0-1.89648-2.54492l1.92089-.86328a14.43885,14.43885,0,0,1,2.23145,2.9043l-1.05566.5039H129.75a17.21057,17.21057,0,0,0-1.67969-3.09668l1.94336-.67187a15.47222,15.47222,0,0,1,1.82422,3.14453l-1.60743.624h4.05567a22.72067,22.72067,0,0,0,2.376-3.60058l2.35253.74414c-.71972,1.00781-1.53613,2.01562-2.25585,2.85644h3.8164v4.99219h-2.13672V42.91113H122.62105Zm3.48047,1.12793h8.85742v-1.416h-8.85742Zm0,2.76074h8.85742V48.47949h-8.85742Zm0,2.832h8.85742V51.26367h-8.85742Z"/><path class="cls-16" d="M157.72652,46.70312c-1.08008.81641-2.208,1.53614-3.35938,2.25586h9.3125V59.208H161.375v-.64746h-9.04883v.74414h-2.208V51.23926c-1.34375.624-2.71191,1.20019-4.08008,1.72851a12.27307,12.27307,0,0,0-1.36816-1.84765,43.08052,43.08052,0,0,0,9.38476-4.417h-8.78515V44.71094h7.94531V42.02246h-5.85645V40.0791h5.85645V37.27051h2.208V40.0791h5.59277v1.05567a26.3772,26.3772,0,0,0,2.61621-3.09668l1.91992,1.00879a34.74,34.74,0,0,1-5.30468,5.66406h6.28906v1.99218Zm3.64844,4.1045h-9.04883V52.7998H161.375Zm0,5.85644v-2.1123h-9.04883v2.1123Zm-4.39258-11.95312a34.1128,34.1128,0,0,0,3.14453-2.68848h-4.7041v2.68848Z"/><path class="cls-16" d="M180.59859,55.94434a13.53612,13.53612,0,0,0,2.1123-.33594c3.04883-.69629,5.76075-2.9043,5.76075-6.74512a6.28617,6.28617,0,0,0-5.71289-6.624,54.28874,54.28874,0,0,1-1.416,6.67187c-1.44043,4.84864-3.4082,7.56055-5.78418,7.56055-2.35254,0-4.5127-2.66406-4.5127-6.624,0-5.28028,4.68067-9.86524,10.63282-9.86524,5.71289,0,9.33691,3.98438,9.33691,8.97656,0,4.96875-3.19238,8.42481-9.001,9.24122Zm-1.67969-7.53711a32.98334,32.98334,0,0,0,1.2959-6.12012,7.96729,7.96729,0,0,0-6.76855,7.34473c0,2.73632,1.22363,3.98437,2.18457,3.98437C176.66207,53.61621,177.81441,52.08008,178.9189,48.40723Z"/><path class="cls-16" d="M212.69722,56.97656c.93555,0,1.08008-.38476,1.17578-3.28906a6.28958,6.28958,0,0,0,2.08887.91211c-.26465,3.60059-.88867,4.48828-3.04883,4.48828h-3.55176c-2.5205,0-3.14453-.67187-3.14453-2.92773V51.81543h-3.456c-.55176,3.81641-2.04,6.26465-7.65723,7.53711a6.92829,6.92829,0,0,0-1.27148-1.96875c4.91992-.96,6.0957-2.71191,6.55273-5.56836H197.288V38.0625h15.26465V51.81543H208.497v4.34473c0,.71972.168.8164,1.12793.8164Zm-13.249-14.90527h10.84863v-2.0166H199.4482Zm0,3.86426h10.84863v-2.04H199.4482Zm0,3.91211h10.84863V47.7832H199.4482Z"/><path class="cls-16" d="M234.28511,46.55957c-.96094.8877-3.43261,3.14355-4.17676,3.93652a2.837,2.837,0,0,1,.8877.11914,2.22575,2.22575,0,0,1,1.65625,1.68067c.2168.67187.50391,1.72754.74414,2.42383.24023.83984.793,1.22461,1.873,1.22461a21.91028,21.91028,0,0,0,4.55957-.48047l-.14356,2.52051a37.62938,37.62938,0,0,1-4.56054.33593c-2.04,0-3.26465-.456-3.793-2.0166-.23926-.71973-.55176-1.99219-.76758-2.63965-.28809-.8164-.76758-1.20019-1.36816-1.20019A2.585,2.585,0,0,0,227.54,53.376a66.8953,66.8953,0,0,0-4.55958,5.06445l-2.25683-1.56055a11.43831,11.43831,0,0,0,1.36816-1.248c1.08008-1.05567,6.86524-6.81641,9.1211-9.14454-1.77637.09571-5.25684.38379-6.69727.50391-.76758.07227-1.43945.168-1.96777.26367l-.21582-2.63965c.55176.04786,1.34375.07227,2.13574.07227,1.27246-.02441,6.7207-.33594,8.61719-.57617a5.96776,5.96776,0,0,0,1.20019-.26465l1.416,1.585C235.17281,45.81543,234.64449,46.27148,234.28511,46.55957Zm.792-7.0332-.3125,2.208c-2.44824-.19141-6.71972-.71973-9.57714-1.22364l.36035-2.208A88.41673,88.41673,0,0,0,235.0771,39.52637Z"/><path class="cls-16" d="M254.34371,43.39062c-.07227,1.17676-.168,2.377-.3125,3.55274h9.36132s-.02441.69629-.07226,1.03223c-.43164,6.67285-.93555,9.33691-1.87207,10.32031a2.97733,2.97733,0,0,1-2.25586.91211,38.40462,38.40462,0,0,1-4.05664-.02344A4.61472,4.61472,0,0,0,254.36714,57c1.65625.14453,3.33692.168,4.00879.168a1.57541,1.57541,0,0,0,1.15235-.31152c.64746-.55274,1.10449-2.8086,1.44043-7.80079h-7.29688c-.86426,4.15235-2.80859,7.99219-7.63281,10.36914a6.50188,6.50188,0,0,0-1.6084-1.84863c6.52832-3,7.17676-8.85644,7.44043-14.18555h-7.10449V41.25488h9.43261V37.1748h2.28125v4.08008h9.64844v2.13574Z"/><path class="cls-16" d="M401.08394,56.97656c2.23145,0,2.61523-.55273,2.92773-3.36035a6.85892,6.85892,0,0,0,2.18458.81543c-.45606,3.57617-1.2959,4.6084-5.01661,4.6084h-8.78515c-4.10352,0-5.35254-.74414-5.35254-3.8877v-9.9375q-.64746.54054-1.36817,1.08008a7.19114,7.19114,0,0,0-1.60742-1.584A21.91843,21.91843,0,0,0,390.955,37.1748l2.44727.4795c-.23926.4082-.50391.8164-.76758,1.22461h5.32813l.43261-.12012,1.51172.9834a24.371,24.371,0,0,1-2.16015,3.48047h6.52832v8.85742h-2.2793V51.0957H389.27437v4.08008c0,1.48828.48047,1.80078,3.04785,1.80078Zm-9.8418-16.15332a31.18592,31.18592,0,0,1-2.06347,2.39942h5.95215a18.2,18.2,0,0,0,1.60839-2.39942Zm-1.96777,8.25586h5.06445V45.23926h-5.06445Zm12.72168-3.83984h-5.44922V49.0791h5.44922Z"/><path class="cls-16" d="M417.09566,54.81641c-2.06445.76757-4.24805,1.584-6.001,2.18359l-.76758-1.91992c1.65625-.45606,4.05567-1.22461,6.45606-1.99219Zm3.36035-7.585s-.02441.67187-.04785.98437c-.38477,6.74414-.74414,9.26465-1.46484,10.12891a2.11814,2.11814,0,0,1-1.63184.83984,14.7651,14.7651,0,0,1-2.78418.02344,4.62325,4.62325,0,0,0-.57617-1.96778,17.47371,17.47371,0,0,0,2.28027.09571.90938.90938,0,0,0,.81641-.31153c.47949-.52832.81543-2.56836,1.10351-7.84863h-5.0166l-.14355.74414.45605-.33594a12.05776,12.05776,0,0,1,2.47266,2.4961l-1.48828,1.22363a12.69692,12.69692,0,0,0-2.42481-2.63965l.76856-.57617-2.0166-.33594a67.55892,67.55892,0,0,0,1.20019-6.81738h5.85645V40.15039h-6.55176V38.13477h8.80859v6.8164h-6.19336c-.11914.76758-.24023,1.53613-.38379,2.28028Zm7.48828,7.32031c-2.16015.86426-4.44043,1.72851-6.24023,2.376l-.792-1.8955c1.67968-.50391,4.2246-1.32032,6.7207-2.16016Zm3.40821-7.29688s-.02344.67285-.04786.96094c-.24023,6.76856-.55175,9.28809-1.27148,10.15234a2.47448,2.47448,0,0,1-1.87305.86426,22.28582,22.28582,0,0,1-3.38379,0,4.74485,4.74485,0,0,0-.624-1.94433c1.2959.12011,2.49609.12011,3.02441.12011a1.11907,1.11907,0,0,0,.91211-.3125c.50391-.52734.76758-2.61621.9834-7.91992h-5.51953l-.16894.792.60058-.45605a11.17017,11.17017,0,0,1,2.56836,2.51953l-1.53613,1.249a11.98171,11.98171,0,0,0-2.47266-2.68847L423.288,50.04l-2.13574-.33692c.45508-1.7998.96-4.584,1.27148-6.76855h6.33692V40.15039h-6.86426V38.13477h9.12012v6.8164h-6.67285c-.14356.76758-.26368,1.56055-.40723,2.30371Z"/><path class="cls-16" d="M448.72554,46.70312c-1.08008.81641-2.208,1.53614-3.36035,2.25586h9.3125V59.208H452.374v-.64746h-9.04883v.74414h-2.208V51.23926c-1.34472.624-2.71289,1.20019-4.08007,1.72851a12.28,12.28,0,0,0-1.36915-1.84765,43.0806,43.0806,0,0,0,9.38477-4.417h-8.78418V44.71094h7.94434V42.02246H438.3564V40.0791h5.85645V37.27051h2.209V40.0791h5.5918v1.05567a26.28377,26.28377,0,0,0,2.61621-3.09668l1.9209,1.00879a34.74009,34.74009,0,0,1-5.30469,5.66406h6.28809v1.99218Zm3.64844,4.1045h-9.04883V52.7998H452.374Zm0,5.85644v-2.1123h-9.04883v2.1123ZM447.9814,44.71094a34.24025,34.24025,0,0,0,3.14453-2.68848h-4.7041v2.68848Z"/><path class="cls-16" d="M471.59761,55.94434a13.52158,13.52158,0,0,0,2.11133-.33594c3.04883-.69629,5.76074-2.9043,5.76074-6.74512a6.28537,6.28537,0,0,0-5.71191-6.624,54.47112,54.47112,0,0,1-1.416,6.67187c-1.44043,4.84864-3.4082,7.56055-5.78515,7.56055-2.35157,0-4.51172-2.66406-4.51172-6.624,0-5.28028,4.67969-9.86524,10.63281-9.86524,5.71191,0,9.33594,3.98438,9.33594,8.97656,0,4.96875-3.19141,8.42481-9,9.24122ZM469.917,48.40723a32.82689,32.82689,0,0,0,1.2959-6.12012,7.96726,7.96726,0,0,0-6.76758,7.34473c0,2.73632,1.22363,3.98437,2.18359,3.98437C467.66109,53.61621,468.81246,52.08008,469.917,48.40723Z"/><path class="cls-16" d="M503.69527,56.97656c.93652,0,1.08008-.38476,1.17676-3.28906a6.27567,6.27567,0,0,0,2.08789.91211c-.26367,3.60059-.8877,4.48828-3.04785,4.48828h-3.55274c-2.51953,0-3.14453-.67187-3.14453-2.92773V51.81543h-3.45605c-.55176,3.81641-2.04,6.26465-7.65625,7.53711A6.91084,6.91084,0,0,0,484.83,57.38379c4.9209-.96,6.09668-2.71191,6.55274-5.56836h-3.0957V38.0625h15.26464V51.81543h-4.05664v4.34473c0,.71972.16895.8164,1.12793.8164Zm-13.248-14.90527h10.84863v-2.0166H490.44722Zm0,3.86426h10.84863v-2.04H490.44722Zm0,3.91211h10.84863V47.7832H490.44722Z"/><path class="cls-16" d="M525.28316,46.55957c-.96.8877-3.43164,3.14355-4.17578,3.93652a2.83692,2.83692,0,0,1,.88769.11914,2.22573,2.22573,0,0,1,1.65625,1.68067c.21582.67187.50391,1.72754.74414,2.42383.23926.83984.792,1.22461,1.87207,1.22461a21.92784,21.92784,0,0,0,4.56055-.48047l-.14453,2.52051a37.6294,37.6294,0,0,1-4.56055.33593c-2.04,0-3.26367-.456-3.792-2.0166-.24023-.71973-.55176-1.99219-.76855-2.63965-.28711-.8164-.76758-1.20019-1.36719-1.20019a2.58281,2.58281,0,0,0-1.65625.91211,67.08233,67.08233,0,0,0-4.56055,5.06445l-2.25586-1.56055a11.517,11.517,0,0,0,1.36719-1.248c1.08008-1.05567,6.86523-6.81641,9.12109-9.14454-1.77539.09571-5.25586.38379-6.69629.50391-.76855.07227-1.44043.168-1.96777.26367l-.2168-2.63965c.55274.04786,1.34473.07227,2.13672.07227,1.27149-.02441,6.72071-.33594,8.61621-.57617a5.96788,5.96788,0,0,0,1.2002-.26465l1.416,1.585C526.17183,45.81543,525.64351,46.27148,525.28316,46.55957Zm.792-7.0332-.31152,2.208c-2.44824-.19141-6.72071-.71973-9.57715-1.22364l.36035-2.208A88.43106,88.43106,0,0,0,526.07515,39.52637Z"/><path class="cls-16" d="M545.34175,43.39062c-.07129,1.17676-.168,2.377-.31152,3.55274h9.36035s-.02344.69629-.07129,1.03223c-.43262,6.67285-.93652,9.33691-1.87207,10.32031a2.9795,2.9795,0,0,1-2.25683.91211,38.3866,38.3866,0,0,1-4.05567-.02344A4.6147,4.6147,0,0,0,545.36617,57c1.65625.14453,3.33691.168,4.00879.168a1.57283,1.57283,0,0,0,1.15136-.31152c.64844-.55274,1.1045-2.8086,1.44043-7.80079h-7.29687c-.86328,4.15235-2.80762,7.99219-7.63281,10.36914a6.51352,6.51352,0,0,0-1.60743-1.84863c6.52832-3,7.17578-8.85644,7.44043-14.18555h-7.10449V41.25488h9.43262V37.1748h2.28027v4.08008h9.64844v2.13574Z"/><path class="cls-17" d="M287.32515,106.36914v1.623h-1.374V92.96582h5.34961v13.40332Zm0-12.03027V98.876h2.60156V94.33887Zm2.60156,10.65625V100.25h-2.60156v4.74512Zm12.73731-2.08106a10.527,10.527,0,0,1-2.85156,4.62012,14.9386,14.9386,0,0,0,4.62109,1.582,5.80076,5.80076,0,0,0-.93652,1.31152,14.32056,14.32056,0,0,1-4.87012-1.957,13.84043,13.84043,0,0,1-4.53711,1.93555,4.66726,4.66726,0,0,0-.875-1.14453,13.96606,13.96606,0,0,0,4.24609-1.623,10.76533,10.76533,0,0,1-2.43457-2.70605,10.85049,10.85049,0,0,1-4.10058,5.43261,4.36978,4.36978,0,0,0-1.06153-1.083c2.97657-1.85157,4.10059-5.07813,4.59961-8.09571h-2.83007V99.875h3.03808c.0625-.56152.125-1.124.167-1.64355h-2.58105V96.96191h7.38867a23.2478,23.2478,0,0,0,1.915-3.49707l1.457.47852a33.79775,33.79775,0,0,1-1.89453,3.01855h2.51855v1.26954h-7.30566c-.041.51953-.10352,1.082-.166,1.64355H304.08v1.31152h-8.11718c-.0625.458-.167.93653-.25,1.39453h5.80664l.291-.042Zm.60351-10.24023a62.92308,62.92308,0,0,1-10.94726,1.06152,3.99954,3.99954,0,0,0-.375-1.207A68.74838,68.74838,0,0,0,302.373,91.50879Zm-9.17773,1.332a17.38162,17.38162,0,0,1,1.04,2.53906l-1.26953.417a15.89274,15.89274,0,0,0-.97852-2.623Zm1.78906,9.78223a9.82932,9.82932,0,0,0,2.76856,3.03906,8.48629,8.48629,0,0,0,2.22656-3.03906Zm1.26953-7.07618a22.45132,22.45132,0,0,0-.56152-2.83105l1.249-.208c.25.916.52051,2.06055.624,2.74707Z"/><path class="cls-17" d="M322.43062,108.7002c1.99805,0,2.31055-.5625,2.56055-3.08008a5.10081,5.10081,0,0,0,1.54.582c-.35352,3.03906-.999,3.93359-4.0586,3.93359h-8.07519c-3.35157,0-4.3711-.582-4.3711-3.05957V97.85645c-.4375.3955-.916.749-1.39453,1.10351a4.27307,4.27307,0,0,0-1.124-1.083,19.38782,19.38782,0,0,0,6.01562-6.57715l1.70606.334c-.22852.374-.47852.749-.72852,1.14453h5.14063l.292-.10449,1.04.666a21.9354,21.9354,0,0,1-1.95606,3.16407h5.86914v7.51269h-1.56054v-.93652H311.56636v4.01758c0,1.29.4375,1.60254,2.72656,1.60254ZM313.5439,94.11035a21.81179,21.81179,0,0,1-2.06055,2.39356H317.207a17.759,17.759,0,0,0,1.582-2.39356Zm-1.97754,7.5752H316.499V97.919h-4.93262Zm11.75977-3.7666H318.039v3.7666h5.28711Z"/><path class="cls-17" d="M336.26558,105.34863a23.38434,23.38434,0,0,1-4.95312,4.59961,7.80968,7.80968,0,0,0-1.374-1.06054,16.94555,16.94555,0,0,0,4.7666-4.1211Zm11.32227-.31152a15.95571,15.95571,0,0,0-1.373-1.64453c-1.97754.0625-3.99609.125-5.97363.1875v6.78515h-1.60254v-6.74316c-3.10156.083-5.97363.14551-8.17969.208l-.167-1.56153c1.291-.0205,2.85156-.041,4.53808-.0625.582-.416,1.165-.874,1.78907-1.373a27.82961,27.82961,0,0,0-4.78614-3.49707l1.04-.957c.458.249.93653.541,1.415.832a28.13188,28.13188,0,0,0,2.748-3.10059c-1.93555.10352-3.89258.1875-5.72363.22852a5.41313,5.41313,0,0,0-.375-1.37305,109.602,109.602,0,0,0,15.25586-1.291l1.124,1.291a75.2681,75.2681,0,0,1-8.49121,1.01953l.22851.125a38.00883,38.00883,0,0,1-3.62109,3.8711,20.147,20.147,0,0,1,2.37207,1.83105,53.89183,53.89183,0,0,0,5.14063-5.03613l1.457.791a74.17311,74.17311,0,0,1-7.30469,6.61817c2.47656-.042,5.16113-.1045,7.80469-.14551-.749-.75-1.54-1.457-2.29-2.082l1.249-.79a34.18039,34.18039,0,0,1,5.09961,4.95312Zm-3.9336-.35449a44.45725,44.45725,0,0,1,5.16211,4.26758l-1.35351.957a39.02031,39.02031,0,0,0-5.05762-4.3711Z"/><circle class="cls-18" cx="576.84523" cy="119.00733" r="30.27736" transform="translate(84.80317 442.74761) rotate(-45)"/><circle class="cls-19" cx="631.59728" cy="158.97978" r="30.27734" transform="translate(72.57488 493.17081) rotate(-45)"/><circle class="cls-20" cx="632.08278" cy="288.99617" r="30.27734" transform="translate(-19.2184 531.59504) rotate(-45)"/><circle class="cls-21" cx="576.84562" cy="329.26372" r="30.27736" transform="translate(-63.87044 504.33057) rotate(-45)"/><circle class="cls-22" cx="508.57157" cy="329.41023" r="30.27732" transform="matrix(0.97325, -0.22975, 0.22975, 0.97325, -62.07809, 125.65767)"/><circle class="cls-23" cx="453.18937" cy="289.44023" r="30.27732" transform="translate(-54.3764 111.86423) rotate(-13.28251)"/><circle class="cls-24" cx="431.90863" cy="224.53057" r="30.27738" transform="translate(-40.0326 105.23885) rotate(-13.28254)"/><circle class="cls-25" cx="452.75818" cy="159.52473" r="30.27732" transform="translate(-24.53952 108.2898) rotate(-13.28251)"/><circle class="cls-26" cx="508.57308" cy="119.17983" r="30.27732" transform="translate(-13.77707 120.03416) rotate(-13.28251)"/><circle class="cls-27" cx="652.93082" cy="223.99063" r="30.27736" transform="translate(32.85372 527.29715) rotate(-45)"/><polyline class="cls-11" points="542.558 368.97 542.558 371.153 540.374 371.153"/><line class="cls-28" x1="535.9287" y1="371.1533" x2="387.0039" y2="371.1533"/><polyline class="cls-11" points="384.781 371.153 382.598 371.153 382.598 368.97"/><line class="cls-13" x1="382.5976" y1="364.6582" x2="382.5976" y2="82.2329"/><polyline class="cls-11" points="382.598 80.077 382.598 77.894 384.781 77.894"/><line class="cls-28" x1="389.2265" y1="77.8936" x2="538.1513" y2="77.8936"/><polyline class="cls-11" points="540.374 77.894 542.558 77.894 542.558 80.077"/><line class="cls-13" x1="542.5576" y1="84.3887" x2="542.5576" y2="366.814"/><polyline class="cls-11" points="702.519 368.97 702.519 371.153 700.335 371.153"/><line class="cls-14" x1="695.8896" y1="371.1533" x2="546.9638" y2="371.1533"/><polyline class="cls-11" points="544.741 371.153 542.558 371.153 542.558 368.97"/><line class="cls-13" x1="542.5576" y1="364.6582" x2="542.5576" y2="82.2329"/><polyline class="cls-11" points="542.558 80.077 542.558 77.894 544.741 77.894"/><line class="cls-14" x1="549.1865" y1="77.8936" x2="698.1123" y2="77.8936"/><polyline class="cls-11" points="700.335 77.894 702.519 77.894 702.519 80.077"/><line class="cls-13" x1="702.5185" y1="84.3887" x2="702.5185" y2="366.814"/><path class="cls-29" d="M409.91207,102.80957a15.18482,15.18482,0,0,0,5.39062,3.39258,6.62249,6.62249,0,0,0-1.06152,1.249,16.44958,16.44958,0,0,1-6.09864-4.6416H403.2314a13.61621,13.61621,0,0,1-6.16113,4.84961,5.06245,5.06245,0,0,0-1.01953-1.207,12.63207,12.63207,0,0,0,5.47363-3.64258h-4.95312V101.54h5.24414V99.958h-2.83008V98.85547h2.83008V97.33594h-3.1836v-1.165h3.1836V94.77637h1.457V96.1709h4.74609V94.77637h1.47754V96.1709h3.16309v1.165h-3.16309v1.51953h2.76758V99.958h-2.76758v1.582h5.34863v1.26953Zm-11.48926-6.16016h-1.49805V92.90332h7.90918v-1.541h1.56055v1.541h8.03418v3.74609h-1.54V94.21387H398.42281Zm2.93554,9.94825a50.09192,50.09192,0,0,1,9.57325,2.51855l-.666,1.29a43.928,43.928,0,0,0-9.57324-2.62207Zm2.45508-2.91407a21.83581,21.83581,0,0,1,4.8711,1.68653l-.666,1.082a23.55413,23.55413,0,0,0-4.8916-1.79Zm-.541-4.82812h4.74609V97.33594h-4.74609Zm0,2.68457h4.74609V99.958h-4.74609Z"/><path class="cls-29" d="M433.36226,108.7002c1.99805,0,2.31055-.5625,2.56055-3.08008a5.10081,5.10081,0,0,0,1.54.582c-.3545,3.03906-.999,3.93359-4.0586,3.93359h-8.07519c-3.35156,0-4.3711-.582-4.3711-3.05957V97.85645c-.4375.3955-.916.749-1.39453,1.10351a4.27307,4.27307,0,0,0-1.124-1.083,19.37384,19.37384,0,0,0,6.01465-6.57715l1.707.334c-.22852.374-.47852.749-.72852,1.14453h5.14063l.292-.10449,1.04.666a21.9354,21.9354,0,0,1-1.95606,3.16407h5.86915v7.51269h-1.56055v-.93652H422.498v4.01758c0,1.29.4375,1.60254,2.72657,1.60254Zm-8.88672-14.58985a21.81276,21.81276,0,0,1-2.06054,2.39356h5.72363a17.759,17.759,0,0,0,1.582-2.39356Zm-1.97754,7.5752h4.93262V97.919H422.498Zm11.75977-3.7666h-5.28711v3.7666h5.28711Z"/><path class="cls-29" d="M447.19722,105.34863a23.38434,23.38434,0,0,1-4.95312,4.59961,7.80968,7.80968,0,0,0-1.374-1.06054,16.959,16.959,0,0,0,4.7666-4.1211Zm11.32227-.31152a15.8538,15.8538,0,0,0-1.374-1.64453c-1.97656.0625-3.99609.125-5.97265.1875v6.78515h-1.60254v-6.74316c-3.10156.083-5.97363.14551-8.17969.208l-.167-1.56153c1.291-.0205,2.85156-.041,4.53808-.0625.582-.416,1.165-.874,1.78907-1.373a27.82961,27.82961,0,0,0-4.78614-3.49707l1.04-.957c.458.249.93653.541,1.415.832a28.13188,28.13188,0,0,0,2.74805-3.10059c-1.93555.10352-3.89258.1875-5.72363.22852a5.41313,5.41313,0,0,0-.375-1.37305,109.602,109.602,0,0,0,15.25586-1.291l1.124,1.291a75.2681,75.2681,0,0,1-8.49121,1.01953l.22851.125a38.00883,38.00883,0,0,1-3.62109,3.8711,20.147,20.147,0,0,1,2.37207,1.83105,53.89183,53.89183,0,0,0,5.14063-5.03613l1.457.791a74.17311,74.17311,0,0,1-7.30469,6.61817c2.47656-.042,5.16113-.1045,7.80469-.14551-.749-.75-1.54-1.457-2.29-2.082l1.249-.79a34.18039,34.18039,0,0,1,5.09961,4.95312Zm-3.9336-.35449a44.4564,44.4564,0,0,1,5.16211,4.26758l-1.35351.957a39.02031,39.02031,0,0,0-5.05762-4.3711Z"/><path class="cls-30" d="M629.74507,106.36914v1.623h-1.374V92.96582h5.34961v13.40332Zm0-12.03027V98.876h2.60157V94.33887Zm2.60157,10.65625V100.25h-2.60157v4.74512Zm12.7373-2.08106a10.53438,10.53438,0,0,1-2.85059,4.62012,14.93274,14.93274,0,0,0,4.62012,1.582,5.80107,5.80107,0,0,0-.93652,1.31152,14.32056,14.32056,0,0,1-4.87012-1.957,13.84043,13.84043,0,0,1-4.53711,1.93555,4.66726,4.66726,0,0,0-.875-1.14453,13.96612,13.96612,0,0,0,4.2461-1.623,10.76514,10.76514,0,0,1-2.43457-2.70605,10.85045,10.85045,0,0,1-4.10059,5.43261,4.36991,4.36991,0,0,0-1.06152-1.083c2.97656-1.85157,4.10058-5.07813,4.59961-8.09571h-2.83008V99.875h3.03808c.0625-.56152.125-1.124.167-1.64355h-2.58106V96.96191h7.38867a23.24691,23.24691,0,0,0,1.915-3.49707l1.457.47852a33.79775,33.79775,0,0,1-1.89453,3.01855h2.51856v1.26954h-7.30567c-.041.51953-.10351,1.082-.166,1.64355H646.5v1.31152h-8.11719c-.0625.458-.167.93653-.25,1.39453h5.80664l.292-.042Zm.60352-10.24023a62.9232,62.9232,0,0,1-10.94727,1.06152,3.99954,3.99954,0,0,0-.375-1.207,68.74824,68.74824,0,0,0,10.42773-1.01953Zm-9.17774,1.332a17.27314,17.27314,0,0,1,1.04,2.53906l-1.26953.417a15.89274,15.89274,0,0,0-.97852-2.623Zm1.78906,9.78223a9.81727,9.81727,0,0,0,2.76856,3.03906,8.48617,8.48617,0,0,0,2.22656-3.03906Zm1.27051-7.07618a22.645,22.645,0,0,0-.5625-2.83105l1.249-.208c.25.916.5205,2.06055.624,2.74707Z"/><path class="cls-30" d="M664.85054,108.7002c1.998,0,2.31055-.5625,2.56055-3.08008a5.10081,5.10081,0,0,0,1.54.582c-.35449,3.03906-.999,3.93359-4.0586,3.93359h-8.07519c-3.35156,0-4.37109-.582-4.37109-3.05957V97.85645c-.4375.3955-.916.749-1.39454,1.10351a4.27307,4.27307,0,0,0-1.124-1.083,19.37374,19.37374,0,0,0,6.01465-6.57715l1.707.334c-.22852.374-.47852.749-.72852,1.14453h5.14063l.292-.10449,1.04.666a21.93621,21.93621,0,0,1-1.95605,3.16407h5.86914v7.51269h-1.56055v-.93652H653.98628v4.01758c0,1.29.4375,1.60254,2.72657,1.60254Zm-8.88672-14.58985a21.81276,21.81276,0,0,1-2.06054,2.39356h5.72363a17.759,17.759,0,0,0,1.582-2.39356Zm-1.97754,7.5752h4.93262V97.919h-4.93262Zm11.75977-3.7666h-5.28711v3.7666h5.28711Z"/><path class="cls-30" d="M678.6855,105.34863a23.38434,23.38434,0,0,1-4.95312,4.59961,7.80968,7.80968,0,0,0-1.374-1.06054,16.95919,16.95919,0,0,0,4.76661-4.1211Zm11.32227-.31152a15.85356,15.85356,0,0,0-1.374-1.64453c-1.97657.0625-3.9961.125-5.97266.1875v6.78515h-1.60254v-6.74316c-3.10156.083-5.97363.14551-8.17969.208l-.167-1.56153c1.291-.0205,2.85156-.041,4.53809-.0625.582-.416,1.165-.874,1.78906-1.373a27.8299,27.8299,0,0,0-4.78613-3.49707l1.04-.957c.458.249.93653.541,1.415.832a28.13085,28.13085,0,0,0,2.74805-3.10059c-1.93555.10352-3.89258.1875-5.72363.22852a5.41272,5.41272,0,0,0-.375-1.37305,109.602,109.602,0,0,0,15.25586-1.291l1.124,1.291a75.26781,75.26781,0,0,1-8.49121,1.01953l.22852.125a38.01,38.01,0,0,1-3.6211,3.8711,20.147,20.147,0,0,1,2.37207,1.83105,53.89183,53.89183,0,0,0,5.14063-5.03613l1.457.791a74.17311,74.17311,0,0,1-7.30469,6.61817c2.47656-.042,5.16113-.1045,7.80469-.14551-.749-.75-1.54-1.457-2.29-2.082l1.249-.79a34.18039,34.18039,0,0,1,5.09961,4.95312Zm-3.9336-.35449a44.4564,44.4564,0,0,1,5.16211,4.26758l-1.35351.957a39.02031,39.02031,0,0,0-5.05762-4.3711Z"/></svg>