<svg id="レイヤー_1" data-name="レイヤー 1" xmlns="http://www.w3.org/2000/svg" viewBox="0 0 742.8144 223.4961"><defs><style>.cls-1,.cls-15{fill:none;stroke-width:2.83465px;}.cls-1{stroke:#e7a988;stroke-miterlimit:10;}.cls-2{fill:#e78d1a;}.cls-10,.cls-11,.cls-12,.cls-13,.cls-14,.cls-2,.cls-3,.cls-4,.cls-5,.cls-7,.cls-8,.cls-9{stroke:#fff;stroke-width:0.75px;}.cls-3{fill:#1a592f;}.cls-4{fill:#3599d5;}.cls-5{fill:#5f4165;}.cls-6{fill:#231815;}.cls-7{fill:#60b66d;}.cls-8{fill:#c15054;}.cls-9{fill:#a29422;}.cls-10{fill:#59532f;}.cls-11{fill:#7f8fc6;}.cls-12{fill:#3c4664;}.cls-13{fill:#b4aa6c;}.cls-14{fill:#686655;}.cls-15{stroke:#6f6e6f;}.cls-16{fill:#6f6e6f;}.cls-17{fill:#fff;stroke:#231815;stroke-width:0.5px;}</style></defs><title>miyasuku</title><circle class="cls-1" cx="55.19528" cy="46.9795" r="17.58204"/><rect class="cls-2" x="34.4873" y="82.4834" width="37.3545" height="74.709"/><rect class="cls-3" x="71.8418" y="82.4834" width="37.3535" height="74.709"/><rect class="cls-4" x="145.1875" y="82.4834" width="37.3535" height="74.709"/><rect class="cls-5" x="182.541" y="82.4834" width="37.3525" height="74.709"/><path class="cls-6" d="M88.79488,50.76368v2.16015H86.73042V36.4336h7.99317V50.76368Zm0-12.28906v4.03222h3.86426V38.47462Zm3.86426,10.22461V44.499H88.79488v4.2002Zm14.4248,5.64062c0,1.248-.31152,1.91992-1.12695,2.28027a12.02079,12.02079,0,0,1-4.17676.40821,8.48752,8.48752,0,0,0-.81641-2.16114c1.44043.04883,2.9043.02442,3.33692.02442.40722-.02442.57617-.168.57617-.57617V49.51563H98.44332a12.19892,12.19892,0,0,1-4.51172,7.72852A7.76569,7.76569,0,0,0,92.27535,55.708c4.00781-3.001,4.416-7.48925,4.416-11.16113V36.02637h10.39258Zm-2.207-6.86523V43.77833h-6.001v.792c0,.91211-.02441,1.89648-.12011,2.9043Zm-6.001-9.38477v3.64844h6.001V38.08985Z"/><path class="cls-6" d="M115.59078,44.06641c0,3.76856-.33594,9.33692-2.42383,12.98535a10.0979,10.0979,0,0,0-1.82422-1.22363c1.94434-3.4082,2.1123-8.28125,2.1123-11.76172V37.29786h8.64063V35.042h2.32812v2.25586h8.73633v1.99219H115.59078Zm15.96191,5.209a11.581,11.581,0,0,1-4.46484,4.65625,31.57843,31.57843,0,0,0,6.50488,1.27246,7.93283,7.93283,0,0,0-1.2959,1.91992,27.16928,27.16928,0,0,1-7.60937-1.99219,31.491,31.491,0,0,1-8.16016,1.96778,6.83767,6.83767,0,0,0-.93652-1.87207,33.41159,33.41159,0,0,0,6.86425-1.32032,12.76309,12.76309,0,0,1-3.31152-3.0957l1.08008-.4082h-3.67285V48.60352h13.22558l.40821-.07226ZM119.8398,47.35548V43.51465h-3.55273V41.69044h3.55273V39.86622h2.11133v1.82422h5.18457V39.86622h2.18457v1.82422h3.67187v1.82421h-3.67187v3.84083Zm1.43945,3.04785a10.31236,10.31236,0,0,0,3.48047,2.59179,11.0599,11.0599,0,0,0,3.55274-2.59179Zm.67188-6.88868V45.627h5.18457V43.51465Z"/><path class="cls-6" d="M142.11617,37.03419c-.168.456-.40821,1.3916-.50489,1.82421a56.37242,56.37242,0,0,0-1.17578,8.95313,17.816,17.816,0,0,0,.168,2.49609c.36035-.96.83985-2.1123,1.2002-2.97656l1.248.96a47.28241,47.28241,0,0,0-1.7041,5.54492,4.38746,4.38746,0,0,0-.12011,1.08008c0,.23926.02441.59961.04785.8877l-2.16016.14355a29.69384,29.69384,0,0,1-.91211-7.67969,67.67015,67.67015,0,0,1,1.03223-9.48144,17.32268,17.32268,0,0,0,.21582-1.96777Zm5.47168,11.61718a9.05153,9.05153,0,0,0-.28711,2.11231c0,1.08008.792,1.91992,3.67187,1.91992a26.73626,26.73626,0,0,0,5.92871-.624l.04785,2.54394a32.15042,32.15042,0,0,1-6.02441.48047c-4.03223,0-5.9043-1.39258-5.9043-3.69629a14.55287,14.55287,0,0,1,.40723-2.92871Zm8.61718-9.91308v2.44824a60.04428,60.04428,0,0,1-9.96093,0V38.7627A44.5935,44.5935,0,0,0,156.205,38.73829Z"/><path class="cls-6" d="M183.06148,45.38673v1.96875H168.9482c-1.03223,4.248-2.95215,7.584-5.665,9.7207a13.6317,13.6317,0,0,0-1.89551-1.56055,13.53144,13.53144,0,0,0,5.16016-8.16015h-4.6084V45.38673h9.38476V43.61036h-7.15234V41.73829h7.15234V40.01075h-8.35253V38.06641h4.53613a13.31152,13.31152,0,0,0-1.36817-2.208l1.9209-.76855a11.18238,11.18238,0,0,1,1.79981,2.85645l-.26465.12011h5.61719l-.07227-.02441a18.3078,18.3078,0,0,0,1.56055-3.04785l2.40039.624a27.15533,27.15533,0,0,1-1.63281,2.44824h4.70507v1.94434h-8.56933v1.72754h7.34472v1.87207h-7.34472v1.77637Zm-7.48926,9.16894h7.05664v1.96777H166.5V54.55567h6.8164V50.8838h-4.56054V48.93946h12.26562V50.8838h-5.44922Z"/><path class="cls-6" d="M197.99019,51.84376c.07227-.81641.09668-2.16016.09668-3.33692-2.0166,1.12793-3.28809,2.208-3.28809,3.60059,0,1.63183,1.53614,1.94433,3.93555,1.94433a40.06244,40.06244,0,0,0,6.60156-.624l-.07226,2.42383a60.52965,60.52965,0,0,1-6.60059.4082c-3.55273,0-6.3125-.8164-6.3125-3.76855,0-2.92774,2.85645-4.77637,5.59278-6.168a1.85293,1.85293,0,0,0-1.9209-1.17676,6.04264,6.04264,0,0,0-3.93653,1.7041,25.68019,25.68019,0,0,0-2.18359,2.54492l-2.041-1.53613a24.74807,24.74807,0,0,0,5.377-6.93652H192.542c-.9834,0-2.63965-.04883-3.96-.14453V38.5459a34.87138,34.87138,0,0,0,4.08008.26465h1.39257a14.353,14.353,0,0,0,.55176-2.85644l2.47168.19238c-.14355.624-.33594,1.53613-.67187,2.56738a54.95533,54.95533,0,0,0,7.0332-.69531v2.208a72.74757,72.74757,0,0,1-7.8252.64746,17.3032,17.3032,0,0,1-1.7998,3.09668,7.00619,7.00619,0,0,1,3.02441-.69629,3.12854,3.12854,0,0,1,3.168,2.0166c1.46387-.69629,2.68848-1.20019,3.81641-1.7041.792-.36035,1.48828-.67187,2.25683-1.05664l.93555,2.209c-.64844.19141-1.67969.5752-2.40039.86329-1.22363.456-2.75977,1.10449-4.416,1.87207.02344,1.34472.07227,3.24023.09571,4.36914Z"/><path class="cls-6" d="M214.63472,41.667c1.91992-.60059,6.64844-2.30469,10.15235-2.30469,4.08007,0,7.32031,2.376,7.32031,6.52832,0,5.56836-5.42383,8.64063-13.22461,9.04883l-1.08008-2.51953c6.3125-.14453,11.64063-2.0166,11.64063-6.57715,0-2.376-1.70411-4.22461-4.752-4.22461-3.7207,0-9.57715,2.52051-11.7373,3.4082L211.874,42.38673C212.73824,42.21876,213.74605,41.93067,214.63472,41.667Z"/><path class="cls-6" d="M241.32417,36.7461c-.168.50391-.35937,1.248-.47949,1.72852-.67187,3.07226-1.48828,8.16015-.71972,11.64062.33593-.88769.792-2.18457,1.19921-3.24023l1.248.792a56.64952,56.64952,0,0,0-1.584,5.49609,4.52023,4.52023,0,0,0-.11914,1.08008c0,.24023.04785.60059.04785.88867l-2.06445.24024a26.27229,26.27229,0,0,1-1.2959-7.60938,65.20081,65.20081,0,0,1,.83984-9.50488,17.21438,17.21438,0,0,0,.14453-1.77539Zm15.57813,6.43262c-1.03223.14355-2.30469.26367-3.69629.36035v.88769c0,5.52051-.19238,9.2168-5.08887,12.2168l-2.208-1.72754a8.45351,8.45351,0,0,0,2.5205-1.68066c2.23243-2.06446,2.47168-4.48828,2.47168-8.833v-.74414c-.96.02441-1.91992.04883-2.85644.04883-1.10352,0-2.66406-.07227-3.76758-.14453V41.16212a25.95361,25.95361,0,0,0,3.71973.24023c.91211,0,1.89648-.02344,2.85644-.04785-.02344-1.44043-.07226-2.85645-.12012-3.48047a11.25346,11.25346,0,0,0-.24023-1.48828h2.76074a13.888,13.888,0,0,0-.0957,1.48828c-.02441.52832,0,1.91992.02344,3.33691a34.03559,34.03559,0,0,0,3.7207-.50488Z"/><path class="cls-6" d="M275.9482,38.61817c-.47949.3125-1.03223.67188-1.46387.98438-1.22461.86425-4.10449,3.38378-5.78516,4.77636a8.8402,8.8402,0,0,1,2.8086-.4082c3.98437,0,6.93652,2.44824,6.93652,5.76074,0,3.81641-3.04785,6.52832-8.376,6.52832-3.28907,0-5.49707-1.48828-5.49707-3.624a3.672,3.672,0,0,1,3.93652-3.38477A4.751,4.751,0,0,1,273.5,53.42774a3.88252,3.88252,0,0,0,2.49609-3.7207c0-2.23242-2.25586-3.81641-5.16016-3.81641-3.793,0-6.04882,1.77637-8.85742,4.75293l-1.752-1.77637c1.84863-1.51171,4.82422-4.00879,6.2168-5.16015,1.32031-1.10449,4.05664-3.38477,5.25683-4.417-1.24805.04785-5.30469.21582-6.55273.28808-.60059.04785-1.22364.09668-1.752.168l-.07226-2.47168a17.30177,17.30177,0,0,0,1.89551.12012c1.249,0,6.625-.14453,7.92187-.26465a8.30251,8.30251,0,0,0,1.51172-.24024Zm-4.63184,15.38574c-.19238-1.75293-1.22461-2.90429-2.80859-2.90429-.98438,0-1.7041.57617-1.7041,1.32031,0,1.03125,1.22363,1.67969,2.832,1.67969A12.54981,12.54981,0,0,0,271.31636,54.00391Z"/><rect class="cls-7" x="254.4072" y="82.4834" width="37.3545" height="74.709"/><rect class="cls-8" x="291.7617" y="82.4834" width="37.3545" height="74.709"/><rect class="cls-9" x="409.9677" y="82.4834" width="37.3535" height="74.709"/><rect class="cls-10" x="447.3212" y="82.4834" width="37.3536" height="74.709"/><rect class="cls-11" x="520.6669" y="82.4834" width="37.3536" height="74.709"/><rect class="cls-12" x="558.0205" y="82.4834" width="37.3535" height="74.709"/><rect class="cls-13" x="629.8857" y="82.4834" width="37.3555" height="74.709"/><rect class="cls-14" x="667.2412" y="82.4834" width="37.3545" height="74.709"/><line class="cls-15" x1="342.6689" y1="119.8389" x2="385.5073" y2="119.8389"/><polygon class="cls-16" points="382.819 129.026 398.728 119.84 382.819 110.652 382.819 129.026"/><path class="cls-6" d="M123.875,180.86817V182.501H109.30855v-1.63281Z"/><path class="cls-6" d="M132.46773,182.24415v5.52246c0,.624-.12793.99219-.52832,1.20019a4.6282,4.6282,0,0,1-1.87305.22461,4.10992,4.10992,0,0,0-.39941-1.18457c.5918.01563,1.15234.01563,1.3125,0,.19238,0,.25586-.06445.25586-.24023v-5.37793l-2.6084.28808c-.0166,2.04883-.19238,4.76954-1.3125,6.49805a4.76238,4.76238,0,0,0-1.02539-.67187c.99316-1.60059,1.13672-3.8418,1.15234-5.69825l-.99219.11231-.14355-1.2168,1.13574-.1123v-4.91407h1.40918a17.31088,17.31088,0,0,0,.52832-2.19238l1.60059.30371c-.25684.64063-.52832,1.3291-.75293,1.88867h2.24121v4.40235l.7041-.06445.0166,1.15234Zm-1.23242-1.04V177.8584h-2.6084v3.61817Zm-1.2959-2.833a6.86438,6.86438,0,0,1,.86328,2.04883l-.97559.416a6.86407,6.86407,0,0,0-.80078-2.09668Zm.36719,8.27539h-.89649v-3.68164h.89649Zm10.084-5.042a10.69023,10.69023,0,0,1-2.416,4.76953,8.68853,8.68853,0,0,0,3.3291,1.585,5.68429,5.68429,0,0,0-.89649,1.21582,9.14549,9.14549,0,0,1-3.4414-1.85644A11.19021,11.19021,0,0,1,133.541,189.207a5.46973,5.46973,0,0,0-.8164-1.24805,9.55407,9.55407,0,0,0,3.23242-1.665,11.37187,11.37187,0,0,1-1.87207-3.39355l1.05566-.24024H133.541V181.332h5.68164l.25586-.06446Zm-4.78516-4.40235a4.78615,4.78615,0,0,1-1.55273,3.90625,5.62837,5.62837,0,0,0-1.07227-.86425,3.54559,3.54559,0,0,0,1.2959-3.07422v-2.06445h4.78614V178.707c0,.27246,0,.44824.06445.49609a.31278.31278,0,0,0,.22363.06445h.35254a.585.585,0,0,0,.27149-.04882.50175.50175,0,0,0,.16015-.35157c.03223-.208.04883-.68847.06445-1.29687a3.26544,3.26544,0,0,0,1.07227.57617,9.09565,9.09565,0,0,1-.17578,1.55274.96168.96168,0,0,1-.5127.57617,1.923,1.923,0,0,1-.76855.14453H138.998a1.32944,1.32944,0,0,1-.94336-.32031c-.24023-.22364-.33691-.5127-.33691-1.42481v-2.27246h-2.11231Zm-.30468,5.458a8.46626,8.46626,0,0,0,1.63281,2.73731,8.57583,8.57583,0,0,0,1.665-2.73731Z"/><path class="cls-6" d="M154.77339,187.63868c1.48926,0,1.74512-.36817,1.95313-2.24121a4.56323,4.56323,0,0,0,1.457.54492c-.30469,2.38476-.86523,3.07324-3.3457,3.07324h-5.8584c-2.73731,0-3.56934-.49707-3.56934-2.59375v-6.626q-.43212.35889-.91211.71973a4.82759,4.82759,0,0,0-1.07226-1.05664,14.62691,14.62691,0,0,0,4.59375-5.02539l1.63281.32031c-.16016.27149-.33691.54395-.5127.81543h3.55372l.28808-.08008,1.00781.65723a16.23291,16.23291,0,0,1-1.44043,2.32031h4.35352v5.90625h-1.52051v-.65625h-8.4834v2.72168c0,.99219.32032,1.2002,2.03321,1.2002Zm-6.5625-10.77246a20.95233,20.95233,0,0,1-1.376,1.60058h3.96972a12.2633,12.2633,0,0,0,1.07227-1.60058Zm-1.3125,5.50586h3.37793v-2.56055h-3.37793Zm8.4834-2.56055H151.749v2.56055h3.63281Z"/><path class="cls-6" d="M172.91792,187.76661c.56055,0,.65625-.17578.72071-1.60059a3.27022,3.27022,0,0,0,1.32812.52832c-.17578,1.95313-.60742,2.38477-1.88867,2.38477h-2.38476c-1.66407,0-2.04883-.40039-2.04883-1.72852v-1.585h-2.0166c-.43262,1.9209-1.64844,2.92969-5.49024,3.44141a4.29633,4.29633,0,0,0-.73633-1.28028c3.3291-.32031,4.33789-.89648,4.70606-2.16113h-1.74512v-6.5625h8.75586v6.5625h-2.0166V187.335c0,.38379.11133.43164.76758.43164Zm-10.46777-7.42676h-1.376v-3.3291h2.22461a10.18758,10.18758,0,0,0-1.26464-1.69727l1.28027-.57617a9.62956,9.62956,0,0,1,1.48828,1.93652l-.7041.33692h3.10547a11.40039,11.40039,0,0,0-1.12012-2.06543l1.29688-.44824a10.36211,10.36211,0,0,1,1.21582,2.09668l-1.07227.417h2.70508a15.24548,15.24548,0,0,0,1.585-2.40137l1.56836.4961c-.48047.67285-1.02442,1.34472-1.50488,1.90527h2.54492v3.3291H172.998V178.2588H162.45015Zm2.32129.75195h5.90625v-.94433h-5.90625Zm0,1.84082h5.90625v-.96h-5.90625Zm0,1.88868h5.90625v-.99219h-5.90625Z"/><path class="cls-6" d="M185.50582,180.78809c-.72071.54395-1.47266,1.02442-2.24122,1.50489h6.21v6.834h-1.53614v-.43164h-6.03418v.49609H180.4316v-5.37793c-.89649.416-1.8086.79981-2.72071,1.15235a8.17775,8.17775,0,0,0-.91308-1.23243,28.7617,28.7617,0,0,0,6.25879-2.94531h-5.8584V179.459h5.29785v-1.792h-3.90527v-1.29688h3.90527v-1.873h1.47266v1.873h3.72949v.70411a17.58953,17.58953,0,0,0,1.74512-2.06446l1.28027.67188a23.15988,23.15988,0,0,1-3.53711,3.77734h4.19336v1.3291Zm2.43261,2.73731h-6.03418v1.32812h6.03418Zm0,3.90527v-1.4082h-6.03418v1.4082Zm-2.92871-7.97168a22.82882,22.82882,0,0,0,2.09668-1.792h-3.13769v1.792Z"/><path class="cls-6" d="M200.40425,186.9502a8.98265,8.98265,0,0,0,1.40821-.22363,4.55363,4.55363,0,0,0,3.84179-4.49805,4.19244,4.19244,0,0,0-3.80957-4.418,36.13406,36.13406,0,0,1-.94433,4.4502c-.96,3.2334-2.27246,5.042-3.85743,5.042-1.56835,0-3.00878-1.77734-3.00878-4.418a6.88871,6.88871,0,0,1,7.09082-6.5791,5.87451,5.87451,0,0,1,6.22656,5.98731c0,3.3125-2.12891,5.61816-6.00293,6.1621Zm-1.12011-5.02539a22.04191,22.04191,0,0,0,.86425-4.082,5.31251,5.31251,0,0,0-4.51367,4.89746c0,1.8252.81641,2.65723,1.45606,2.65723C197.77925,185.39747,198.54781,184.37305,199.28414,181.92481Z"/><path class="cls-6" d="M221.46773,187.63868c.624,0,.71973-.25586.78418-2.19336a4.17375,4.17375,0,0,0,1.39258.6084c-.17578,2.40136-.59278,2.99316-2.03321,2.99316h-2.36914c-1.68066,0-2.09668-.44824-2.09668-1.95215v-2.89746h-2.30468c-.36817,2.54492-1.36036,4.17774-5.10645,5.02637a4.59114,4.59114,0,0,0-.84766-1.3125c3.28125-.64063,4.06543-1.80957,4.36915-3.71387h-2.06446V175.0254h10.17969v9.17187H218.666v2.89746c0,.4795.11231.54395.75293.54395Zm-8.83594-9.94043h7.23535V176.3545h-7.23535Zm0,2.57715h7.23535v-1.36035h-7.23535Zm0,2.60937h7.23535v-1.37695h-7.23535Z"/><path class="cls-6" d="M235.50972,180.69141c-.64062.59278-2.28906,2.09766-2.78515,2.625a1.89773,1.89773,0,0,1,.59179.08008,1.48465,1.48465,0,0,1,1.10449,1.12109c.14454.44825.33692,1.15235.49707,1.61622.15918.56054.52735.8164,1.248.8164a14.60317,14.60317,0,0,0,3.041-.32031l-.09571,1.68066a25.03862,25.03862,0,0,1-3.041.22461c-1.36133,0-2.17774-.30468-2.5293-1.34472-.16015-.48047-.36816-1.32813-.51269-1.76075-.19239-.54394-.51172-.7998-.91211-.7998a1.722,1.722,0,0,0-1.1045.60742,44.72426,44.72426,0,0,0-3.041,3.37793l-1.50488-1.041a7.67075,7.67075,0,0,0,.91308-.832c.71973-.7041,4.57715-4.54589,6.082-6.09863-1.18457.06445-3.50586.25684-4.46582.33594-.51269.04883-.96.1123-1.3125.17676l-.14453-1.76075c.36817.03223.89649.04786,1.42481.04786.84863-.01563,4.48242-.22461,5.74609-.38379a4.0017,4.0017,0,0,0,.80078-.17676l.94434,1.05664C236.10152,180.19532,235.75,180.5,235.50972,180.69141Zm.52832-4.68945-.208,1.47266c-1.63281-.12793-4.48242-.48047-6.38671-.81641l.24023-1.47266A58.86437,58.86437,0,0,0,236.038,176.002Z"/><path class="cls-6" d="M248.52925,178.57911c-.04883.78418-.1123,1.585-.209,2.36914h6.24316s-.0166.46387-.04785.6875c-.28808,4.45019-.625,6.22656-1.249,6.88281a1.98869,1.98869,0,0,1-1.50489.6084,25.79233,25.79233,0,0,1-2.70507-.01563,3.07665,3.07665,0,0,0-.51172-1.457c1.10449.09668,2.22461.11231,2.67285.11231a1.05025,1.05025,0,0,0,.76855-.208c.43164-.36816.73633-1.87305.96094-5.20215H248.081a9.197,9.197,0,0,1-5.09082,6.915,4.33363,4.33363,0,0,0-1.07227-1.23242c4.35352-2.001,4.78614-5.90625,4.96192-9.46h-4.73731V177.1543h6.29v-2.7207h1.52051v2.7207h6.43555v1.42481Z"/><line class="cls-17" x1="34.4873" y1="166.917" x2="329.1162" y2="166.917"/><path class="cls-6" d="M513.94234,187.63868c1.48828,0,1.74414-.36817,1.95215-2.24121a4.572,4.572,0,0,0,1.457.54492c-.30469,2.38476-.86426,3.07324-3.3457,3.07324h-5.8584c-2.73731,0-3.56934-.49707-3.56934-2.59375v-6.626q-.43212.35889-.91211.71973a4.82759,4.82759,0,0,0-1.07226-1.05664,14.61707,14.61707,0,0,0,4.59375-5.02539l1.63281.32031c-.16016.27149-.33594.54395-.5127.81543h3.55371l.28809-.08008,1.00879.65723a16.33022,16.33022,0,0,1-1.44141,2.32031h4.3545v5.90625h-1.52051v-.65625h-8.48438v2.72168c0,.99219.32031,1.2002,2.03321,1.2002Zm-6.56348-10.77246a20.95233,20.95233,0,0,1-1.376,1.60058h3.96972a12.2633,12.2633,0,0,0,1.07227-1.60058Zm-1.3125,5.50586h3.37793v-2.56055h-3.37793Zm8.48438-2.56055H510.917v2.56055h3.63379Z"/><path class="cls-6" d="M524.25777,186.19825c-1.377.51172-2.833,1.05664-4.002,1.45605l-.51172-1.28027c1.10449-.30371,2.70507-.81641,4.30566-1.32813Zm2.24121-5.0586s-.0166.44825-.03223.65625c-.25586,4.49805-.49609,6.17872-.97656,6.75489a1.41177,1.41177,0,0,1-1.08789.56054,9.91106,9.91106,0,0,1-1.85742.01563,3.09164,3.09164,0,0,0-.38379-1.3125,11.68747,11.68747,0,0,0,1.52051.06445.60549.60549,0,0,0,.54394-.208c.32031-.35253.54395-1.71289.73633-5.23437h-3.34473l-.09668.49609.30469-.22363a8.06232,8.06232,0,0,1,1.64844,1.66406l-.99219.81641a8.47817,8.47817,0,0,0-1.61719-1.76074l.5127-.38379-1.34473-.22461a44.95643,44.95643,0,0,0,.79981-4.5459h3.90625V176.418h-4.37012v-1.34473h5.874v4.5459h-4.1289c-.08008.51269-.16016,1.02441-.25586,1.5205Zm4.99414,4.88282c-1.44043.57617-2.96191,1.15234-4.16211,1.584l-.52832-1.26465c1.12109-.33593,2.81738-.87988,4.48242-1.44043Zm2.27246-4.86621s-.01562.44824-.03125.63964c-.16016,4.51465-.36914,6.19532-.84863,6.77149a1.65363,1.65363,0,0,1-1.249.57617,14.95635,14.95635,0,0,1-2.25683,0,3.17267,3.17267,0,0,0-.416-1.29687c.86426.08007,1.665.08007,2.0166.08007a.74625.74625,0,0,0,.6084-.208c.33594-.35254.5127-1.74512.65625-5.28223h-3.68164l-.1123.52832.40039-.30469a7.42967,7.42967,0,0,1,1.71289,1.68164l-1.02441.832a8.00353,8.00353,0,0,0-1.64844-1.793l.49609-.36817-1.4248-.22363c.30468-1.20117.64062-3.05762.84863-4.51465h4.22559V176.418h-4.57813v-1.34473h6.083v4.5459h-4.4502c-.0957.51269-.17578,1.041-.27148,1.53711Z"/><path class="cls-6" d="M544.9941,180.78809c-.72071.54395-1.47266,1.02442-2.24121,1.50489h6.21v6.834h-1.53614v-.43164h-6.03418v.49609h-1.47265v-5.37793c-.89649.416-1.8086.79981-2.72071,1.15235a8.17775,8.17775,0,0,0-.91308-1.23243,28.7617,28.7617,0,0,0,6.25879-2.94531h-5.8584V179.459h5.29785v-1.792h-3.90527v-1.29688h3.90527v-1.873H543.457v1.873h3.72949v.70411a17.58953,17.58953,0,0,0,1.74512-2.06446l1.28027.67188a23.15945,23.15945,0,0,1-3.53711,3.77734h4.19336v1.3291Zm2.43261,2.73731h-6.03418v1.32812h6.03418Zm0,3.90527v-1.4082h-6.03418v1.4082ZM544.498,179.459a22.82749,22.82749,0,0,0,2.09668-1.792H543.457v1.792Z"/><path class="cls-6" d="M559.89253,186.9502a8.98265,8.98265,0,0,0,1.40821-.22363,4.55363,4.55363,0,0,0,3.84179-4.49805,4.19315,4.19315,0,0,0-3.80957-4.418,36.31411,36.31411,0,0,1-.94433,4.4502c-.96094,3.2334-2.27344,5.042-3.85742,5.042-1.56836,0-3.00977-1.77734-3.00977-4.418a6.889,6.889,0,0,1,7.0918-6.5791,5.87506,5.87506,0,0,1,6.22656,5.98731c0,3.3125-2.12891,5.61816-6.00293,6.1621Zm-1.12109-5.02539a21.9629,21.9629,0,0,0,.86523-4.082,5.31252,5.31252,0,0,0-4.51367,4.89746c0,1.8252.81641,2.65723,1.45606,2.65723C557.26753,185.39747,558.03511,184.37305,558.77144,181.92481Z"/><path class="cls-6" d="M580.955,187.63868c.625,0,.72071-.25586.78516-2.19336a4.16515,4.16515,0,0,0,1.39258.6084c-.17676,2.40136-.59277,2.99316-2.0332,2.99316h-2.36915c-1.68066,0-2.09667-.44824-2.09667-1.95215v-2.89746h-2.30469c-.36817,2.54492-1.36035,4.17774-5.10645,5.02637a4.6123,4.6123,0,0,0-.84765-1.3125c3.28125-.64063,4.06445-1.80957,4.36914-3.71387h-2.06446V175.0254h10.17969v9.17187h-2.70508v2.89746c0,.4795.11231.54395.752.54395Zm-8.835-9.94043h7.23438V176.3545h-7.23438Zm0,2.57715h7.23438v-1.36035h-7.23438Zm0,2.60937h7.23438v-1.37695h-7.23438Z"/><path class="cls-6" d="M594.998,180.69141c-.64062.59278-2.28906,2.09766-2.78515,2.625a1.90548,1.90548,0,0,1,.59179.08008,1.48608,1.48608,0,0,1,1.1045,1.12109c.14355.44825.33593,1.15235.49609,1.61622.16016.56054.52832.8164,1.249.8164a14.60317,14.60317,0,0,0,3.041-.32031l-.0957,1.68066a25.0407,25.0407,0,0,1-3.042.22461c-1.36035,0-2.17675-.30468-2.52832-1.34472-.16015-.48047-.36914-1.32813-.51269-1.76075-.19239-.54394-.5127-.7998-.91211-.7998a1.71981,1.71981,0,0,0-1.10449.60742,44.72184,44.72184,0,0,0-3.041,3.37793l-1.50488-1.041a7.59859,7.59859,0,0,0,.91211-.832c.7207-.7041,4.57812-4.54589,6.083-6.09863-1.18457.06445-3.50585.25684-4.46679.33594-.51172.04883-.96.1123-1.3125.17676l-.14356-1.76075c.36817.03223.89649.04786,1.42481.04786.84765-.01563,4.48144-.22461,5.74609-.38379a4.0017,4.0017,0,0,0,.80078-.17676l.94434,1.05664C595.5898,180.19532,595.23824,180.5,594.998,180.69141Zm.52735-4.68945-.207,1.47266c-1.63282-.12793-4.48243-.48047-6.38672-.81641l.24023-1.47266A58.87864,58.87864,0,0,0,595.52535,176.002Z"/><path class="cls-6" d="M608.01656,178.57911c-.04785.78418-.11231,1.585-.208,2.36914h6.24219s-.01563.46387-.04688.6875c-.28906,4.45019-.625,6.22656-1.249,6.88281a1.98866,1.98866,0,0,1-1.50488.6084,25.79292,25.79292,0,0,1-2.70508-.01563,3.07654,3.07654,0,0,0-.51172-1.457c1.10449.09668,2.22461.11231,2.67285.11231a1.05029,1.05029,0,0,0,.76856-.208c.43164-.36816.73632-1.87305.96-5.20215h-4.86621a9.1934,9.1934,0,0,1-5.08985,6.915,4.33375,4.33375,0,0,0-1.07226-1.23242c4.35351-2.001,4.78613-5.90625,4.96191-9.46h-4.7373V177.1543h6.29v-2.7207h1.52051v2.7207h6.43457v1.42481Z"/><line class="cls-17" x1="409.9668" y1="166.917" x2="704.5957" y2="166.917"/></svg>