<svg id="レイヤー_1" data-name="レイヤー 1" xmlns="http://www.w3.org/2000/svg" viewBox="0 0 742.8144 217"><defs><style>.cls-1,.cls-16{fill:none;stroke-width:2.83465px;}.cls-1{stroke:#7f9fc8;stroke-miterlimit:10;}.cls-2{fill:#231815;}.cls-3{fill:#e78d1a;}.cls-10,.cls-11,.cls-12,.cls-13,.cls-14,.cls-3,.cls-4,.cls-5,.cls-6,.cls-7,.cls-8,.cls-9{stroke:#fff;stroke-width:0.75px;}.cls-4{fill:#409f3a;}.cls-5{fill:#08699e;}.cls-6{fill:#885f91;}.cls-7{fill:#097b56;}.cls-8{fill:#dc535a;}.cls-9{fill:#a29422;}.cls-10{fill:#9f943d;}.cls-11{fill:#506396;}.cls-12{fill:#57648c;}.cls-13{fill:#787357;}.cls-14{fill:#736e59;}.cls-15{fill:#fff;stroke:#231815;stroke-width:0.5px;}.cls-16{stroke:#6f6e6f;}.cls-17{fill:#6f6e6f;}</style></defs><title>miyasuku</title><line class="cls-1" x1="37.3994" y1="36.0703" x2="72.9961" y2="71.666"/><line class="cls-1" x1="72.9961" y1="36.0703" x2="37.3994" y2="71.666"/><path class="cls-2" d="M102.01949,56.34766a17.97746,17.97746,0,0,0,5.90429,3.55273,8.24394,8.24394,0,0,0-1.51171,1.77539,19.11834,19.11834,0,0,1-6.96094-5.32812H94.19527a16.02843,16.02843,0,0,1-7.10449,5.54492,8.517,8.517,0,0,0-1.48828-1.75293,14.68592,14.68592,0,0,0,6.07226-3.792H86.32222V54.54785h5.9043V53.084H89.083V51.52344h3.14356V50.05957H88.69917v-.91211h-2.041V44.61035h8.92969V42.93066h2.27929v1.67969h9.07325v4.53711h-2.08887v.91211h-3.55176v1.46387h3.14453V53.084h-3.14453v1.46387h6.04883v1.79981Zm-9.793-7.89649V47.01074h2.1123v1.44043H99.164V47.01074h2.13574v1.44043h3.38379V46.4834H88.81832v1.96777ZM91.915,60.5a57.66072,57.66072,0,0,1,10.94433,2.64062l-.93555,1.82422a51.90391,51.90391,0,0,0-10.99316-2.78418Zm2.832-3.33594a27.33068,27.33068,0,0,1,5.54492,1.82422l-.98438,1.55957a26.87414,26.87414,0,0,0-5.49707-1.96777Zm-.40821-5.64062H99.164V50.05957h-4.8252Zm0,3.02441H99.164V53.084h-4.8252Z"/><path class="cls-2" d="M127.91792,62.63672c2.23243,0,2.61622-.55274,2.92872-3.36035a6.85029,6.85029,0,0,0,2.18457.81543c-.457,3.57617-1.29688,4.6084-5.01758,4.6084h-8.78418c-4.10449,0-5.35254-.74415-5.35254-3.8877V50.875q-.64746.54052-1.36816,1.08008a7.19583,7.19583,0,0,0-1.6084-1.584A21.90869,21.90869,0,0,0,117.789,42.835l2.44824.47949c-.23926.40821-.50391.81641-.76758,1.22461h5.32813l.43261-.12011,1.51172.98339a24.36989,24.36989,0,0,1-2.16015,3.48047h6.52832v8.85742H128.83v-.98437h-12.7207v4.08008c0,1.48828.48047,1.80078,3.04785,1.80078ZM118.0771,46.4834a31.40163,31.40163,0,0,1-2.06347,2.39941h5.95215a18.19919,18.19919,0,0,0,1.60839-2.39941Zm-1.96777,8.25586h5.06445V50.89941h-5.06445ZM128.83,50.89941h-5.44824v3.83985H128.83Z"/><path class="cls-2" d="M144.50386,59.37207a28.08449,28.08449,0,0,1-5.66406,5.18457,14.796,14.796,0,0,0-2.041-1.56055,18.5935,18.5935,0,0,0,5.40039-4.46386Zm12.457-.48047a18.23479,18.23479,0,0,0-1.416-1.77539c-2.16016.0957-4.36817.168-6.50488.21582v7.63281h-2.35254V57.4043c-3.45606.11914-6.67188.1914-9.19239.23925l-.23925-2.25585c1.46386,0,3.21582-.02442,5.13574-.04786.60058-.43261,1.22363-.91211,1.87207-1.416a34.27942,34.27942,0,0,0-5.23242-3.84082l1.53613-1.416c.45605.26367.93652.55176,1.416.86426a36.66621,36.66621,0,0,0,2.71192-3.04785c-2.11133.11914-4.19922.1914-6.168.21582A8.13,8.13,0,0,0,137.999,44.707a118.88662,118.88662,0,0,0,17.47363-1.48828l1.584,1.89648a84.70431,84.70431,0,0,1-9.52832,1.17579l.19238.0957a46.00035,46.00035,0,0,1-4.0332,4.27246,25.62106,25.62106,0,0,1,2.32812,1.7998,55.916,55.916,0,0,0,5.61719-5.51953l2.16015,1.17578a82.67483,82.67483,0,0,1-8.06445,7.17676c2.544-.04785,5.23242-.09668,7.91992-.168-.76757-.7207-1.53613-1.416-2.25586-2.04l1.82422-1.17675a37.95929,37.95929,0,0,1,5.75977,5.665Zm-4.08007-.47949a44.24117,44.24117,0,0,1,5.832,4.65625l-1.99219,1.44043a39.29879,39.29879,0,0,0-5.68848-4.84863Z"/><path class="cls-2" d="M183.39253,62.27637c0,1.27246-.28808,1.94433-1.08007,2.30371a10.55588,10.55588,0,0,1-4.05664.4082,8.4859,8.4859,0,0,0-.76758-2.18359c1.36718.07129,2.75976.04785,3.168.04785.4082-.02442.55175-.168.55175-.57617V46.21875H165.72652V65.0127h-2.16016V44.10645h19.82617Zm-3.91211-12.001h-12.002V48.37891h12.002Zm-8.76171,9.93652v1.68067h-2.06348V52.4834h9.624v7.72851Zm0-5.85644v3.98437h5.49707V54.35547Z"/><path class="cls-2" d="M199.98042,52.50781v9.02442h8.32813v2.23242h-18.8418V61.53223h8.13672V52.50781h-9.456v-2.209h9.456V42.97852h2.377v7.32031H209.581v2.209Z"/><path class="cls-2" d="M220.97847,56.49219c0-4.417,2.95313-6.96094,6.2168-6.96094,3.26465,0,6.2168,2.544,6.2168,6.96094,0,4.36816-2.95215,6.88867-6.2168,6.88867C223.9316,63.38086,220.97847,60.86035,220.97847,56.49219Zm9.60156,0c0-2.8086-1.29687-4.68067-3.38476-4.68067-2.06445,0-3.36035,1.87207-3.36035,4.68067,0,2.78418,1.2959,4.63183,3.36035,4.63183C229.28316,61.124,230.58,59.27637,230.58,56.49219Z"/><path class="cls-2" d="M238.2275,49.86719h2.25683l.21484,2.376h.07227a4.56331,4.56331,0,0,1,3.74414-2.71191,3.279,3.279,0,0,1,1.48828.28809L245.5,52.21973a3.89294,3.89294,0,0,0-1.32032-.2168c-1.08007,0-2.376.74414-3.21582,2.833v8.23242H238.2275Z"/><path class="cls-2" d="M258.72359,60.42773v1.84864h-1.94434v-17.498H263.164V60.42773Zm0-13.68066v4.77637h2.44824V46.74707ZM261.17183,58.46V53.46777h-2.44824V58.46Zm15.07324-2.1123a11.82418,11.82418,0,0,1-3.04785,5.23242,16.82294,16.82294,0,0,0,5.01563,1.56054,9.12167,9.12167,0,0,0-1.36719,1.89551,16.47374,16.47374,0,0,1-5.3291-2.08789,16.30549,16.30549,0,0,1-4.89649,2.08789,8.52951,8.52951,0,0,0-1.22363-1.7041,15.95571,15.95571,0,0,0,4.416-1.584,14.309,14.309,0,0,1-2.376-2.5918,12.00119,12.00119,0,0,1-4.585,5.78418,5.78239,5.78239,0,0,0-1.46387-1.6084c3.3125-2.01562,4.585-5.44824,5.13672-8.76074h-3.09668V52.72363H266.788c.04785-.55175.09668-1.05664.14453-1.56054H264.124V49.38672h1.68066c-.21679-.76758-.64843-1.91992-1.00879-2.832L266.5,46.09863a23.69425,23.69425,0,0,1,1.1289,2.8086l-1.36914.47949h6.3125a24.32938,24.32938,0,0,0,2.0166-3.93555l2.08887.64746c-.64844,1.10449-1.39258,2.30469-2.08887,3.28809H277.205v1.77637h-8.1123c-.04785.52832-.09668,1.03222-.168,1.56054h8.80859v1.84766h-9.07324c-.07226.45605-.168.86426-.24023,1.32031h6.21679l.38477-.04785Zm.74414-11.61719a78.41716,78.41716,0,0,1-12.74511,1.20019,7.32078,7.32078,0,0,0-.50391-1.7041,82.92933,82.92933,0,0,0,11.97656-1.15234Zm-8.35254,12.8418a10.19758,10.19758,0,0,0,2.85547,2.97558,8.44543,8.44543,0,0,0,2.23243-2.97558Zm.96-8.32911c-.09668-.792-.36036-2.13574-.60059-3.14453l1.77637-.31152c.26465.9834.55175,2.28027.67285,3.02441Z"/><path class="cls-2" d="M298.5771,62.63672c2.23145,0,2.61622-.55274,2.92774-3.36035a6.8591,6.8591,0,0,0,2.18457.81543c-.45606,3.57617-1.2959,4.6084-5.0166,4.6084h-8.78418c-4.10449,0-5.35352-.74415-5.35352-3.8877V50.875q-.64746.54052-1.36719,1.08008a7.19558,7.19558,0,0,0-1.60839-1.584A21.90869,21.90869,0,0,0,288.4482,42.835l2.44824.47949c-.24023.40821-.50391.81641-.76855,1.22461h5.3291l.43164-.12011,1.51172.98339a24.37,24.37,0,0,1-2.16016,3.48047h6.5293v8.85742h-2.28028v-.98437H286.76753v4.08008c0,1.48828.48047,1.80078,3.04883,1.80078ZM288.73628,46.4834a31.41849,31.41849,0,0,1-2.06445,2.39941H292.625a18.29077,18.29077,0,0,0,1.60742-2.39941Zm-1.96875,8.25586H291.832V50.89941h-5.06446Zm12.72168-3.83985H294.041v3.83985h5.44824Z"/><path class="cls-2" d="M315.16207,59.37207a28.05844,28.05844,0,0,1-5.66407,5.18457,14.84543,14.84543,0,0,0-2.04-1.56055,18.60641,18.60641,0,0,0,5.40039-4.46386Zm12.457-.48047a18.08858,18.08858,0,0,0-1.416-1.77539c-2.16016.0957-4.36816.168-6.50391.21582v7.63281h-2.35253V57.4043c-3.45606.11914-6.67286.1914-9.19239.23925L307.914,55.3877c1.46387,0,3.21582-.02442,5.13574-.04786.60059-.43261,1.22461-.91211,1.87207-1.416a34.27892,34.27892,0,0,0-5.23242-3.84082l1.53711-1.416c.45508.26367.93555.55176,1.416.86426a36.844,36.844,0,0,0,2.71192-3.04785c-2.11231.11914-4.2002.1914-6.16895.21582a8.12813,8.12813,0,0,0-.52734-1.99219,118.88453,118.88453,0,0,0,17.47266-1.48828l1.584,1.89648a84.67547,84.67547,0,0,1-9.52832,1.17579l.19238.0957a46.00035,46.00035,0,0,1-4.0332,4.27246,25.64324,25.64324,0,0,1,2.3291,1.7998,56.004,56.004,0,0,0,5.61621-5.51953l2.16016,1.17578a82.67613,82.67613,0,0,1-8.06446,7.17676c2.54395-.04785,5.23243-.09668,7.91993-.168-.76758-.7207-1.53516-1.416-2.25586-2.04l1.82422-1.17675a38.01481,38.01481,0,0,1,5.76074,5.665Zm-4.08008-.47949a44.1766,44.1766,0,0,1,5.832,4.65625l-1.99219,1.44043a39.33855,39.33855,0,0,0-5.6875-4.84863Z"/><path class="cls-2" d="M354.05074,62.27637c0,1.27246-.28809,1.94433-1.08008,2.30371a10.55019,10.55019,0,0,1-4.05664.4082,8.48553,8.48553,0,0,0-.76758-2.18359c1.36816.07129,2.75977.04785,3.168.04785.4082-.02442.55176-.168.55176-.57617V46.21875H336.38472V65.0127h-2.16015V44.10645h19.82617Zm-3.91211-12.001h-12.002V48.37891h12.002Zm-8.76074,9.93652v1.68067h-2.06446V52.4834h9.625v7.72851Zm0-5.85644v3.98437H346.874V54.35547Z"/><path class="cls-2" d="M370.63863,52.50781v9.02442h8.3291v2.23242h-18.8418V61.53223h8.13672V52.50781h-9.457v-2.209h9.457V42.97852h2.376v7.32031h9.60058v2.209Z"/><rect class="cls-3" x="34.4873" y="84.9434" width="37.3545" height="74.707"/><rect class="cls-4" x="71.8418" y="84.9434" width="37.3535" height="74.707"/><rect class="cls-5" x="145.1875" y="84.9434" width="37.3535" height="74.707"/><rect class="cls-6" x="182.541" y="84.9434" width="37.3525" height="74.707"/><rect class="cls-7" x="254.4072" y="84.9434" width="37.3545" height="74.707"/><rect class="cls-8" x="291.7617" y="84.9434" width="37.3545" height="74.707"/><path class="cls-2" d="M123.875,181.57129v1.63281H109.30953v-1.63281Z"/><path class="cls-2" d="M132.46871,182.94727v5.52246c0,.624-.12793.99218-.52832,1.20019a4.62025,4.62025,0,0,1-1.87207.22461,4.17243,4.17243,0,0,0-.4004-1.18457c.5918.01563,1.15235.01563,1.3125,0,.19141,0,.25586-.06445.25586-.24023V183.0918l-2.60937.28808c-.01563,2.04883-.19141,4.76953-1.3125,6.498a4.74841,4.74841,0,0,0-1.02344-.67188c.99219-1.60058,1.13574-3.84179,1.15235-5.69824l-.99317.11231-.14355-1.2168,1.13672-.1123V177.377h1.4082a17.48058,17.48058,0,0,0,.52832-2.19238l1.60058.30371c-.25585.64063-.52832,1.3291-.752,1.88867h2.24024v4.40235l.70507-.06446.01563,1.15235Zm-1.23243-1.04v-3.34571h-2.60937v3.61817Zm-1.29687-2.833a6.87261,6.87261,0,0,1,.86523,2.04883l-.97656.416a6.81379,6.81379,0,0,0-.80078-2.09668Zm.36914,8.27539h-.89648V183.668h.89648Zm10.084-5.042a10.68244,10.68244,0,0,1-2.418,4.76953,8.69991,8.69991,0,0,0,3.33007,1.585,5.684,5.684,0,0,0-.89648,1.21582,9.1528,9.1528,0,0,1-3.44141-1.85645,11.18379,11.18379,0,0,1-3.42578,1.88868,5.3736,5.3736,0,0,0-.8164-1.248,9.54949,9.54949,0,0,0,3.23339-1.665,11.37209,11.37209,0,0,1-1.87207-3.39355l1.05664-.24024H133.541v-1.32812h5.68262l.25586-.06446Zm-4.78613-4.40235a4.7892,4.7892,0,0,1-1.55273,3.90625,5.59865,5.59865,0,0,0-1.07227-.86425,3.54559,3.54559,0,0,0,1.2959-3.07422v-2.06446h4.78613v3.60157c0,.27246,0,.44824.06446.49609a.31278.31278,0,0,0,.22363.06445h.35254a.58953.58953,0,0,0,.27246-.04882.51031.51031,0,0,0,.15918-.35157c.03222-.208.04785-.68847.06445-1.29687a3.25562,3.25562,0,0,0,1.07227.57617,9.09654,9.09654,0,0,1-.17578,1.55273.96472.96472,0,0,1-.5127.57618,1.91816,1.91816,0,0,1-.76758.14453H139a1.33419,1.33419,0,0,1-.94532-.32032c-.23925-.22363-.33593-.51269-.33593-1.4248v-2.27246H135.6064Zm-.30469,5.458a8.46629,8.46629,0,0,0,1.63282,2.73731,8.59354,8.59354,0,0,0,1.665-2.73731Z"/><path class="cls-2" d="M154.77535,188.3418c1.48828,0,1.74414-.36817,1.95215-2.24121a4.56314,4.56314,0,0,0,1.457.54492c-.30469,2.38476-.86426,3.07324-3.34571,3.07324h-5.8584c-2.7373,0-3.56933-.49707-3.56933-2.59375v-6.626q-.43214.35889-.91211.71973a4.81131,4.81131,0,0,0-1.07324-1.05664,14.61106,14.61106,0,0,0,4.59472-5.02539l1.63184.32031c-.16016.27149-.33594.54395-.51172.81543h3.55371l.28809-.08008,1.00781.65723a16.32182,16.32182,0,0,1-1.44043,2.32031h4.35449v5.90625h-1.52148v-.65625h-8.4834v2.72168c0,.99219.32031,1.2002,2.0332,1.2002Zm-6.56348-10.77246a20.9525,20.9525,0,0,1-1.376,1.60058h3.96875a12.17207,12.17207,0,0,0,1.07325-1.60058Zm-1.3125,5.50586h3.37793v-2.56055h-3.37793Zm8.4834-2.56055H151.75v2.56055h3.63281Z"/><path class="cls-2" d="M172.91988,188.46973c.55957,0,.65625-.17578.71972-1.60059a3.27458,3.27458,0,0,0,1.32911.52832c-.17676,1.95313-.6084,2.38477-1.88868,2.38477h-2.38574c-1.665,0-2.04883-.40039-2.04883-1.72852v-1.585h-2.0166c-.43164,1.9209-1.64844,2.92969-5.49023,3.44141a4.29642,4.29642,0,0,0-.73633-1.28028c3.3291-.32031,4.33789-.89648,4.70605-2.16113h-1.74511v-6.5625h8.75586v6.5625h-2.0166v1.56934c0,.38379.1123.43164.76855.43164ZM162.45113,181.043h-1.377v-3.3291h2.22559a10.18765,10.18765,0,0,0-1.26465-1.69727l1.28028-.57617a9.70963,9.70963,0,0,1,1.48925,1.93652l-.70507.33692H167.205a11.46118,11.46118,0,0,0-1.12011-2.06543l1.2959-.44824a10.36972,10.36972,0,0,1,1.21679,2.09668l-1.07226.417h2.70507a15.10314,15.10314,0,0,0,1.584-2.40137l1.56934.49609c-.48047.67286-1.02442,1.34473-1.50489,1.90528h2.54492v3.3291H173v-2.08106H162.45113Zm2.32129.75195h5.90625v-.94433h-5.90625Zm0,1.84082h5.90625v-.96h-5.90625Zm0,1.88867h5.90625v-.99218h-5.90625Z"/><path class="cls-2" d="M185.50679,181.49121c-.7207.54395-1.47265,1.02441-2.24121,1.50488h6.21094v6.834h-1.53711v-.43164h-6.03418v.49609h-1.47266V184.5166c-.89648.416-1.80859.79981-2.72168,1.15235a8.10358,8.10358,0,0,0-.91211-1.23243,28.76148,28.76148,0,0,0,6.25879-2.94531h-5.8584v-1.3291H182.497v-1.792h-3.90528v-1.29688H182.497v-1.873h1.47265v1.873h3.72949v.7041a17.58751,17.58751,0,0,0,1.74512-2.06445l1.28028.67188a23.11778,23.11778,0,0,1-3.53711,3.77734h4.19336v1.3291Zm2.43262,2.73731h-6.03418v1.32812h6.03418Zm0,3.90527v-1.4082h-6.03418v1.4082Zm-2.92871-7.97168a22.82882,22.82882,0,0,0,2.09668-1.792h-3.1377v1.792Z"/><path class="cls-2" d="M200.40523,187.65332a9.01615,9.01615,0,0,0,1.40918-.22363,4.55367,4.55367,0,0,0,3.84082-4.49805,4.19245,4.19245,0,0,0-3.80957-4.418,36.13229,36.13229,0,0,1-.94434,4.4502c-.96,3.2334-2.27246,5.042-3.85742,5.042-1.56836,0-3.00879-1.77734-3.00879-4.418a6.88872,6.88872,0,0,1,7.09082-6.5791,5.87452,5.87452,0,0,1,6.22657,5.9873c0,3.3125-2.12891,5.61817-6.00293,6.16211Zm-1.12012-5.02539a21.96329,21.96329,0,0,0,.86426-4.082,5.31251,5.31251,0,0,0-4.51367,4.89746c0,1.82519.81543,2.65723,1.456,2.65723C197.78023,186.10059,198.54878,185.07617,199.28511,182.62793Z"/><path class="cls-2" d="M221.46871,188.3418c.624,0,.71972-.25586.78418-2.19336a4.15646,4.15646,0,0,0,1.39257.6084c-.17675,2.40136-.59277,2.99316-2.0332,2.99316h-2.36914c-1.68066,0-2.09668-.44824-2.09668-1.95215v-2.89746h-2.30469c-.36816,2.54492-1.36035,4.17773-5.10644,5.02637a4.57412,4.57412,0,0,0-.84864-1.3125c3.28223-.64063,4.06641-1.80957,4.37012-3.71387h-2.06445v-9.17187H221.372v9.17187H218.667v2.89746c0,.47949.1123.54395.75293.54395Zm-8.83594-9.94043h7.23437v-1.34375h-7.23437Zm0,2.57715h7.23437v-1.36036h-7.23437Zm0,2.60937h7.23437v-1.37695h-7.23437Z"/><path class="cls-2" d="M235.5107,181.39453c-.64063.59277-2.28906,2.09766-2.78516,2.625a1.90166,1.90166,0,0,1,.5918.08008,1.48607,1.48607,0,0,1,1.10449,1.12109c.14453.44825.33594,1.15235.49609,1.61621.16016.56055.52833.81641,1.249.81641a14.603,14.603,0,0,0,3.041-.32031l-.0957,1.68066a25.04038,25.04038,0,0,1-3.042.22461c-1.36035,0-2.17578-.30469-2.52832-1.34473-.16016-.48046-.36817-1.32812-.5127-1.76074-.1914-.54394-.51172-.7998-.91211-.7998a1.71983,1.71983,0,0,0-1.10449.60742,44.72208,44.72208,0,0,0-3.041,3.37793l-1.50489-1.041a7.59676,7.59676,0,0,0,.91211-.832c.72071-.7041,4.57813-4.5459,6.083-6.09863-1.18457.06445-3.50586.25684-4.46582.33594-.5127.04883-.96094.1123-1.3125.17676l-.14453-1.76075c.36816.03223.89648.04785,1.4248.04785.84864-.01562,4.48145-.2246,5.7461-.38378a4.00186,4.00186,0,0,0,.80078-.17676l.94433,1.05664C236.1025,180.89844,235.75093,181.20312,235.5107,181.39453Zm.52832-4.68945-.208,1.47265c-1.63281-.12793-4.48242-.48046-6.38672-.8164l.24024-1.47266A58.89532,58.89532,0,0,0,236.039,176.70508Z"/><path class="cls-2" d="M248.52925,179.28223c-.04687.78418-.11133,1.585-.207,2.36914h6.24219s-.01563.46386-.04785.6875c-.28809,4.45019-.624,6.22656-1.249,6.88281a1.98646,1.98646,0,0,1-1.5039.6084,25.79568,25.79568,0,0,1-2.70508-.01563,3.08875,3.08875,0,0,0-.5127-1.457c1.1045.09668,2.22461.11231,2.67286.11231a1.05026,1.05026,0,0,0,.76855-.208c.43262-.36817.73633-1.87305.96-5.20215H248.082a9.19569,9.19569,0,0,1-5.08985,6.915,4.35271,4.35271,0,0,0-1.07324-1.23242c4.35449-2.001,4.78613-5.90625,4.96192-9.46h-4.73731v-1.42481h6.29v-2.7207h1.52051v2.7207h6.43457v1.42481Z"/><rect class="cls-9" x="409.9677" y="84.9434" width="37.3535" height="74.707"/><rect class="cls-10" x="447.3212" y="84.9434" width="37.3536" height="74.707"/><rect class="cls-11" x="520.6669" y="84.9434" width="37.3536" height="74.707"/><rect class="cls-12" x="558.0205" y="84.9434" width="37.3535" height="74.707"/><rect class="cls-13" x="629.8857" y="84.9434" width="37.3555" height="74.707"/><rect class="cls-14" x="667.2412" y="84.9434" width="37.3545" height="74.707"/><line class="cls-15" x1="34.4873" y1="167.6211" x2="329.1162" y2="167.6211"/><line class="cls-16" x1="342.6689" y1="122.2969" x2="385.5073" y2="122.2969"/><polygon class="cls-17" points="382.819 131.484 398.728 122.298 382.819 113.11 382.819 131.484"/><path class="cls-2" d="M513.94332,188.3418c1.48828,0,1.74414-.36817,1.95312-2.24121a4.54915,4.54915,0,0,0,1.45606.54492c-.30372,2.38476-.86426,3.07324-3.34571,3.07324h-5.8584c-2.73632,0-3.56933-.49707-3.56933-2.59375v-6.626q-.43214.35889-.91211.71973a4.80711,4.80711,0,0,0-1.07227-1.05664,14.60724,14.60724,0,0,0,4.59375-5.02539l1.63282.32031c-.16016.27149-.33692.54395-.5127.81543h3.55371l.28809-.08008,1.00781.65723a16.31469,16.31469,0,0,1-1.43945,2.32031h4.35351v5.90625h-1.52148v-.65625h-8.48242v2.72168c0,.99219.31933,1.2002,2.03222,1.2002Zm-6.5625-10.77246a20.96938,20.96938,0,0,1-1.377,1.60058h3.96973a12.16553,12.16553,0,0,0,1.07226-1.60058Zm-1.3125,5.50586h3.37695v-2.56055h-3.37695Zm8.48242-2.56055h-3.63282v2.56055h3.63282Z"/><path class="cls-2" d="M524.25875,186.90137c-1.376.51172-2.833,1.05664-4.001,1.45605l-.5127-1.28027c1.1045-.30371,2.70508-.81641,4.30567-1.32813Zm2.24121-5.0586s-.01563.44825-.03223.65625c-.25586,4.49805-.49609,6.17871-.97656,6.75489a1.41178,1.41178,0,0,1-1.08789.56054,9.913,9.913,0,0,1-1.85743.01563,3.07777,3.07777,0,0,0-.38378-1.3125,11.682,11.682,0,0,0,1.5205.06445.60553.60553,0,0,0,.54395-.208c.32031-.35254.54492-1.71289.73633-5.23437h-3.34473l-.09668.49609.30469-.22363a8.03817,8.03817,0,0,1,1.64844,1.66406l-.99219.81641a8.47792,8.47792,0,0,0-1.61719-1.76074l.5127-.38379-1.34473-.22461a44.94228,44.94228,0,0,0,.80078-4.5459h3.90527v-1.85645H520.3691v-1.34472h5.875v4.5459h-4.12989c-.08007.51269-.16015,1.02441-.25683,1.5205Zm4.99414,4.88282c-1.44141.57617-2.96094,1.15234-4.16211,1.584l-.52832-1.26465c1.12011-.33594,2.81738-.87988,4.48144-1.44043Zm2.27246-4.86621s-.01563.44824-.03223.63964c-.16016,4.51465-.36719,6.19532-.84766,6.77149a1.652,1.652,0,0,1-1.249.57617,14.95636,14.95636,0,0,1-2.25683,0,3.15826,3.15826,0,0,0-.416-1.29688c.86426.08008,1.66406.08008,2.0166.08008a.74626.74626,0,0,0,.6084-.208c.33594-.35254.51172-1.74512.65625-5.28223h-3.68164l-.11133.52832.39942-.30469a7.42967,7.42967,0,0,1,1.71289,1.68164l-1.02442.832a8.00354,8.00354,0,0,0-1.64844-1.793l.4961-.36816-1.42481-.22363c.30371-1.20117.64063-3.05762.84864-4.51465H532.038v-1.85645h-4.57812v-1.34472h6.083v4.5459h-4.45019c-.0957.51269-.17578,1.041-.27246,1.53711Z"/><path class="cls-2" d="M544.99507,181.49121c-.7207.54395-1.47265,1.02441-2.24121,1.50488h6.21094v6.834h-1.53711v-.43164h-6.03418v.49609h-1.47266V184.5166c-.89648.416-1.80859.79981-2.72168,1.15235a8.10417,8.10417,0,0,0-.9121-1.23243,28.7614,28.7614,0,0,0,6.25878-2.94531h-5.85839v-1.3291h5.29785v-1.792H538.08v-1.29688h3.90528v-1.873H543.458v1.873h3.7295v.7041a17.58838,17.58838,0,0,0,1.74511-2.06445l1.28028.67188a23.11778,23.11778,0,0,1-3.53711,3.77734h4.19336v1.3291Zm2.43262,2.73731h-6.03418v1.32812h6.03418Zm0,3.90527v-1.4082h-6.03418v1.4082Zm-2.92871-7.97168a22.82882,22.82882,0,0,0,2.09668-1.792H543.458v1.792Z"/><path class="cls-2" d="M559.89351,187.65332a9.00171,9.00171,0,0,0,1.4082-.22363,4.55364,4.55364,0,0,0,3.8418-4.49805,4.19245,4.19245,0,0,0-3.80957-4.418,36.31419,36.31419,0,0,1-.94434,4.4502c-.96,3.2334-2.27246,5.042-3.85742,5.042-1.56933,0-3.00879-1.77734-3.00879-4.418a6.88846,6.88846,0,0,1,7.08985-6.5791,5.874,5.874,0,0,1,6.22656,5.9873c0,3.3125-2.12891,5.61817-6.00195,6.16211Zm-1.12012-5.02539a21.96126,21.96126,0,0,0,.86328-4.082,5.31352,5.31352,0,0,0-4.51367,4.89746c0,1.82519.81641,2.65723,1.457,2.65723C557.26851,186.10059,558.03707,185.07617,558.77339,182.62793Z"/><path class="cls-2" d="M580.957,188.3418c.624,0,.71972-.25586.7832-2.19336a4.17375,4.17375,0,0,0,1.39258.6084c-.17578,2.40136-.5918,2.99316-2.03223,2.99316H578.7314c-1.68066,0-2.09668-.44824-2.09668-1.95215v-2.89746H574.33c-.36816,2.54492-1.36132,4.17773-5.10644,5.02637a4.57429,4.57429,0,0,0-.84863-1.3125c3.28125-.64063,4.0664-1.80957,4.37011-3.71387h-2.06543v-9.17187h10.18067v9.17187h-2.70508v2.89746c0,.47949.1123.54395.75293.54395Zm-8.83594-9.94043h7.23437v-1.34375h-7.23437Zm0,2.57715h7.23437v-1.36036h-7.23437Zm0,2.60937h7.23437v-1.37695h-7.23437Z"/><path class="cls-2" d="M594.998,181.39453c-.63965.59277-2.28808,2.09766-2.78515,2.625a1.90382,1.90382,0,0,1,.59277.08008,1.48747,1.48747,0,0,1,1.10449,1.12109c.14453.44825.33594,1.15235.4961,1.61621.16015.56055.52832.81641,1.248.81641a14.60569,14.60569,0,0,0,3.042-.32031l-.09668,1.68066a25.02393,25.02393,0,0,1-3.041.22461c-1.36035,0-2.17676-.30469-2.5293-1.34473-.15918-.48046-.36718-1.32812-.51172-1.76074-.19238-.54394-.51171-.7998-.91211-.7998a1.71983,1.71983,0,0,0-1.10449.60742,44.91215,44.91215,0,0,0-3.042,3.37793l-1.50391-1.041a7.596,7.596,0,0,0,.91211-.832c.72071-.7041,4.57813-4.5459,6.082-6.09863-1.18359.06445-3.50488.25684-4.46484.33594-.51269.04883-.96094.1123-1.3125.17676l-.14453-1.76075c.36816.03223.89648.04785,1.4248.04785.84864-.01562,4.48145-.2246,5.7461-.38378a3.97492,3.97492,0,0,0,.7998-.17676l.94532,1.05664C595.59078,180.89844,595.23824,181.20312,594.998,181.39453Zm.5293-4.68945-.209,1.47265c-1.63282-.12793-4.48145-.48046-6.38672-.8164l.24023-1.47266A58.91217,58.91217,0,0,0,595.5273,176.70508Z"/><path class="cls-2" d="M608.01753,179.28223c-.04785.78418-.11132,1.585-.208,2.36914h6.24316s-.0166.46386-.04883.6875c-.28711,4.45019-.624,6.22656-1.248,6.88281a1.98869,1.98869,0,0,1-1.50489.6084,25.79529,25.79529,0,0,1-2.70508-.01563,3.07648,3.07648,0,0,0-.51171-1.457c1.10449.09668,2.22461.11231,2.67285.11231a1.05161,1.05161,0,0,0,.76855-.208c.43164-.36817.73633-1.87305.96-5.20215h-4.86523a9.197,9.197,0,0,1-5.09082,6.915,4.33378,4.33378,0,0,0-1.07227-1.23242c4.35352-2.001,4.78614-5.90625,4.96192-9.46h-4.73828v-1.42481h6.291v-2.7207h1.52051v2.7207h6.43457v1.42481Z"/><line class="cls-15" x1="409.9668" y1="167.6211" x2="704.5957" y2="167.6211"/></svg>