<svg id="レイヤー_1" data-name="レイヤー 1" xmlns="http://www.w3.org/2000/svg" viewBox="0 0 742.8144 225"><defs><style>.cls-1,.cls-15{fill:none;stroke-width:2.83465px;}.cls-1{stroke:#e7a988;stroke-miterlimit:10;}.cls-2{fill:#231815;}.cls-3{fill:#e78d1a;}.cls-10,.cls-11,.cls-12,.cls-13,.cls-14,.cls-3,.cls-4,.cls-5,.cls-6,.cls-7,.cls-8,.cls-9{stroke:#fff;stroke-width:0.75px;}.cls-4{fill:#409f3a;}.cls-5{fill:#08699e;}.cls-6{fill:#885f91;}.cls-7{fill:#2387c8;}.cls-8{fill:#c5412c;}.cls-9{fill:#a29422;}.cls-10{fill:#9f943d;}.cls-11{fill:#506396;}.cls-12{fill:#57648c;}.cls-13{fill:#6a7fbb;}.cls-14{fill:#645c2c;}.cls-15{stroke:#6f6e6f;}.cls-16{fill:#6f6e6f;}.cls-17{fill:#fff;stroke:#231815;stroke-width:0.5px;}</style></defs><title>miyasuku</title><circle class="cls-1" cx="55.19528" cy="52.2207" r="17.58204"/><path class="cls-2" d="M88.55367,58.7793v1.84863H86.60933v-17.498H92.9941V58.7793Zm0-13.68067V49.875h2.44824V45.09863Zm2.44824,11.71289V51.81934H88.55367v4.99218Zm15.07324-2.1123a11.82413,11.82413,0,0,1-3.04785,5.23242,16.82326,16.82326,0,0,0,5.01562,1.56055,9.12173,9.12173,0,0,0-1.36718,1.89551,16.47375,16.47375,0,0,1-5.3291-2.0879,16.30551,16.30551,0,0,1-4.89649,2.0879,8.52969,8.52969,0,0,0-1.22363-1.70411,15.95553,15.95553,0,0,0,4.416-1.584,14.309,14.309,0,0,1-2.376-2.5918,12.00119,12.00119,0,0,1-4.585,5.78418,5.78239,5.78239,0,0,0-1.46387-1.6084c3.3125-2.01562,4.585-5.44824,5.13672-8.76074H93.25777V51.0752h3.36035c.04785-.55176.09668-1.05665.14453-1.56055H93.95406V47.73828h1.68066c-.2168-.76758-.64844-1.91992-1.00879-2.832l1.7041-.456a23.69437,23.69437,0,0,1,1.12891,2.80859l-1.36914.47949h6.3125a24.329,24.329,0,0,0,2.0166-3.93555l2.08887.64747c-.64844,1.10449-1.39258,2.30468-2.08887,3.28808h2.61621v1.77637h-8.1123c-.04785.52832-.09668,1.03223-.168,1.56055h8.80859v1.84765H98.49019c-.07227.45606-.168.86426-.24023,1.32031h6.21679l.38477-.04785Zm.74414-11.61719a78.41824,78.41824,0,0,1-12.74512,1.2002,7.32117,7.32117,0,0,0-.5039-1.70411,82.9279,82.9279,0,0,0,11.97656-1.15234Zm-8.35254,12.8418a10.19746,10.19746,0,0,0,2.85547,2.97558,8.44529,8.44529,0,0,0,2.23242-2.97558Zm.96-8.3291c-.09668-.792-.36035-2.13575-.60058-3.14453l1.77637-.31153c.26464.9834.55175,2.28028.67285,3.02442Z"/><path class="cls-2" d="M128.40718,60.98828c2.23145,0,2.61621-.55273,2.92774-3.36035a6.859,6.859,0,0,0,2.18457.81543c-.45606,3.57617-1.2959,4.6084-5.0166,4.6084h-8.78418c-4.1045,0-5.35352-.74414-5.35352-3.8877v-9.9375q-.64746.54053-1.36719,1.08008a7.19536,7.19536,0,0,0-1.6084-1.584,21.90874,21.90874,0,0,0,6.88868-7.53614l2.44824.4795c-.24024.4082-.50391.8164-.76856,1.2246h5.32911l.43164-.12011,1.51171.9834a24.371,24.371,0,0,1-2.16015,3.48047h6.5293V56.0918h-2.28028v-.98438H116.59761V59.1875c0,1.48828.48047,1.80078,3.04883,1.80078ZM118.56636,44.835a31.42053,31.42053,0,0,1-2.06445,2.39942H122.455a18.29062,18.29062,0,0,0,1.60743-2.39942Zm-1.96875,8.25586h5.06446V49.251h-5.06446ZM129.31929,49.251h-5.44824v3.83984h5.44824Z"/><path class="cls-2" d="M144.99214,57.72363a28.0581,28.0581,0,0,1-5.66406,5.18457,14.84458,14.84458,0,0,0-2.04-1.56054,18.59382,18.59382,0,0,0,5.40039-4.46387Zm12.457-.48047a18.08684,18.08684,0,0,0-1.416-1.77539c-2.16016.09571-4.36816.168-6.50391.21582v7.63282h-2.35254V55.75586c-3.45605.11914-6.67285.19141-9.19238.23926l-.24023-2.25586c1.46386,0,3.21582-.02442,5.13672-.04785.5996-.43262,1.22363-.91211,1.87207-1.416a34.32749,34.32749,0,0,0-5.23243-3.84082l1.53614-1.416c.45605.26368.93554.55176,1.416.86426a36.66621,36.66621,0,0,0,2.71192-3.04785c-2.11231.11914-4.2002.19141-6.16895.21582a8.12813,8.12813,0,0,0-.52734-1.99219,118.90984,118.90984,0,0,0,17.47363-1.48828l1.584,1.89649a84.72346,84.72346,0,0,1-9.52929,1.17578l.19238.0957a46.12176,46.12176,0,0,1-4.03223,4.27246,25.75555,25.75555,0,0,1,2.32813,1.79981,56.00617,56.00617,0,0,0,5.61621-5.51953l2.16016,1.17578a82.676,82.676,0,0,1-8.06446,7.17675c2.544-.04785,5.23242-.09667,7.9209-.168-.76855-.72071-1.53613-1.416-2.25683-2.04l1.82421-1.17676a37.96976,37.96976,0,0,1,5.76075,5.665Zm-4.08007-.47949a44.18938,44.18938,0,0,1,5.833,4.65625l-1.99218,1.44043a39.4046,39.4046,0,0,0-5.68848-4.84863Z"/><path class="cls-2" d="M180.03121,47.28223c-.59961.36035-1.27246.7207-2.04,1.10449a73.83313,73.83313,0,0,0-6.96094,3.76855c-2.11231,1.36817-3.43262,2.85645-3.43262,4.584,0,1.84863,1.75293,2.92871,5.30469,2.92871a38.6554,38.6554,0,0,0,7.68066-.81641L180.55953,61.54a44.54116,44.54116,0,0,1-7.56153.59961c-4.584,0-7.96875-1.34375-7.96875-5.13574,0-2.52051,1.6084-4.46485,4.03321-6.19336-1.08008-2.01563-2.28028-4.67969-3.38477-7.22461l2.37695-.96a54.63079,54.63079,0,0,0,3.09571,6.84082c2.08789-1.248,4.44043-2.42383,5.66406-3.12012a13.27649,13.27649,0,0,0,1.9209-1.248Z"/><path class="cls-2" d="M202.54,54.69922a17.97169,17.97169,0,0,0,5.90527,3.55273,8.24894,8.24894,0,0,0-1.5127,1.77539,19.09888,19.09888,0,0,1-6.96-5.32812h-5.25683a16.02841,16.02841,0,0,1-7.1045,5.54492,8.51665,8.51665,0,0,0-1.48828-1.75293,14.6859,14.6859,0,0,0,6.07227-3.792h-5.35254V52.89941H192.748V51.43555h-3.14453V49.875H192.748V48.41113h-3.52929V47.499h-2.04V42.96191h8.92871V41.28223h2.28027v1.67968h9.07324V47.499H205.373v.91211h-3.55273V49.875h3.14453v1.56055h-3.14453v1.46386h6.04883v1.79981Zm-9.792-7.89649V45.3623h2.11133v1.44043h4.82422V45.3623h2.13672v1.44043H205.205V44.835H189.3398v1.96777Zm-.3125,12.04883a57.67122,57.67122,0,0,1,10.94532,2.64063l-.93653,1.82422a51.91879,51.91879,0,0,0-10.99316-2.78418Zm2.832-3.33594a27.35117,27.35117,0,0,1,5.54493,1.82422l-.98438,1.55957a26.90646,26.90646,0,0,0-5.49609-1.96777Zm-.4082-5.64062h4.82422V48.41113h-4.82422Zm0,3.02441h4.82422V51.43555h-4.82422Z"/><path class="cls-2" d="M228.43941,60.98828c2.23144,0,2.61523-.55273,2.92773-3.36035a6.85919,6.85919,0,0,0,2.18457.81543c-.45605,3.57617-1.29589,4.6084-5.0166,4.6084H219.75c-4.10352,0-5.35254-.74414-5.35254-3.8877v-9.9375q-.64746.54053-1.36817,1.08008a7.19093,7.19093,0,0,0-1.60742-1.584,21.91843,21.91843,0,0,0,6.88867-7.53614l2.44727.4795c-.23926.4082-.50391.8164-.76758,1.2246h5.32813l.43261-.12011,1.51172.9834a24.371,24.371,0,0,1-2.16015,3.48047h6.52832V56.0918h-2.2793v-.98438H216.62984V59.1875c0,1.48828.48047,1.80078,3.04785,1.80078ZM218.59761,44.835a31.18592,31.18592,0,0,1-2.06347,2.39942h5.95214a18.199,18.199,0,0,0,1.6084-2.39942Zm-1.96777,8.25586h5.06445V49.251h-5.06445ZM229.35152,49.251H223.9023v3.83984h5.44922Z"/><path class="cls-2" d="M245.02437,57.72363a28.0581,28.0581,0,0,1-5.66406,5.18457,14.84458,14.84458,0,0,0-2.04-1.56054,18.60673,18.60673,0,0,0,5.40039-4.46387Zm12.457-.48047a18.23479,18.23479,0,0,0-1.416-1.77539c-2.16016.09571-4.36817.168-6.50489.21582v7.63282h-2.35156V55.75586c-3.457.11914-6.67285.19141-9.19336.23926l-.24023-2.25586c1.46484,0,3.21679-.02442,5.13672-.04785.60058-.43262,1.2246-.91211,1.873-1.416a34.3755,34.3755,0,0,0-5.23242-3.84082l1.53516-1.416c.457.26368.93652.55176,1.416.86426a36.85276,36.85276,0,0,0,2.71289-3.04785c-2.1123.11914-4.20019.19141-6.16894.21582a8.087,8.087,0,0,0-.52832-1.99219,118.91208,118.91208,0,0,0,17.47461-1.48828l1.584,1.89649a84.75252,84.75252,0,0,1-9.5293,1.17578l.19239.0957a46.12176,46.12176,0,0,1-4.03223,4.27246,25.8945,25.8945,0,0,1,2.32813,1.79981,56.00617,56.00617,0,0,0,5.61621-5.51953l2.16015,1.17578a82.67591,82.67591,0,0,1-8.06445,7.17675c2.54394-.04785,5.23242-.09667,7.9209-.168-.76856-.72071-1.53711-1.416-2.25684-2.04l1.82422-1.17676a38.01481,38.01481,0,0,1,5.76074,5.665Zm-4.08008-.47949a44.31821,44.31821,0,0,1,5.833,4.65625l-1.99219,1.44043a39.364,39.364,0,0,0-5.68945-4.84863Z"/><rect class="cls-3" x="34.4873" y="85.8311" width="37.3545" height="74.7089"/><rect class="cls-4" x="145.1875" y="85.8311" width="37.3535" height="74.7089"/><rect class="cls-5" x="71.8418" y="85.8311" width="37.3535" height="74.7089"/><rect class="cls-6" x="182.541" y="85.8311" width="37.3525" height="74.7089"/><rect class="cls-7" x="254.4072" y="85.8311" width="37.3545" height="74.7089"/><rect class="cls-8" x="291.7617" y="85.8311" width="37.3545" height="74.7089"/><rect class="cls-9" x="409.9677" y="85.8311" width="37.3535" height="74.7089"/><rect class="cls-10" x="520.6669" y="85.8311" width="37.3536" height="74.7089"/><rect class="cls-11" x="447.3212" y="85.8311" width="37.3536" height="74.7089"/><rect class="cls-12" x="558.0205" y="85.8311" width="37.3535" height="74.7089"/><rect class="cls-13" x="629.8857" y="85.8311" width="37.3555" height="74.7089"/><rect class="cls-14" x="667.2412" y="85.8311" width="37.3545" height="74.7089"/><line class="cls-15" x1="342.6689" y1="123.1865" x2="385.5073" y2="123.1865"/><polygon class="cls-16" points="382.819 132.374 398.728 123.188 382.819 114 382.819 132.374"/><path class="cls-2" d="M123.875,183.30273v1.63282H109.30855v-1.63282Z"/><path class="cls-2" d="M132.46773,184.67871v5.52246c0,.624-.12793.99219-.52832,1.2002a4.62838,4.62838,0,0,1-1.87305.22461,4.10982,4.10982,0,0,0-.39941-1.18457c.5918.01562,1.15234.01562,1.3125,0,.19238,0,.25586-.06446.25586-.24024v-5.37793l-2.6084.28809c-.0166,2.04883-.19238,4.76953-1.3125,6.498a4.7624,4.7624,0,0,0-1.02539-.67188c.99316-1.60059,1.13672-3.8418,1.15234-5.69824l-.99219.1123-.14355-1.21679,1.13574-.11231V179.1084h1.40918a17.27117,17.27117,0,0,0,.52832-2.19238l1.60059.30371c-.25684.64062-.52832,1.3291-.75293,1.88867h2.24121v4.40234l.7041-.06445.0166,1.15234Zm-1.23242-1.04V180.293h-2.6084v3.61816Zm-1.2959-2.833a6.86459,6.86459,0,0,1,.86328,2.04883l-.97559.416a6.86407,6.86407,0,0,0-.80078-2.09668Zm.36719,8.27539h-.89649v-3.68164h.89649Zm10.084-5.042a10.69023,10.69023,0,0,1-2.416,4.76953,8.68839,8.68839,0,0,0,3.3291,1.585,5.6841,5.6841,0,0,0-.89649,1.21583,9.14565,9.14565,0,0,1-3.4414-1.85645,11.19021,11.19021,0,0,1-3.42481,1.88867,5.47,5.47,0,0,0-.8164-1.24805,9.55387,9.55387,0,0,0,3.23242-1.665,11.37192,11.37192,0,0,1-1.87207-3.39356l1.05566-.24023H133.541V183.7666h5.68164l.25586-.06348Zm-4.78516-4.40234a4.78616,4.78616,0,0,1-1.55273,3.90625,5.6708,5.6708,0,0,0-1.07227-.86524,3.54215,3.54215,0,0,0,1.2959-3.07226V177.54h4.78614v3.60156c0,.27246,0,.44824.06445.4961a.31278.31278,0,0,0,.22363.06445h.35254a.59974.59974,0,0,0,.27149-.04785.50706.50706,0,0,0,.16015-.35254c.03223-.208.04883-.68848.06445-1.29688a3.26525,3.26525,0,0,0,1.07227.57617,9.09565,9.09565,0,0,1-.17578,1.55274.96168.96168,0,0,1-.5127.57617,1.923,1.923,0,0,1-.76855.14453H138.998a1.32944,1.32944,0,0,1-.94336-.32031c-.24023-.22363-.33691-.5127-.33691-1.4248v-2.27247h-2.11231Zm-.30468,5.458a8.46622,8.46622,0,0,0,1.63281,2.7373,8.5759,8.5759,0,0,0,1.665-2.7373Z"/><path class="cls-2" d="M154.77339,190.07324c1.48926,0,1.74512-.36816,1.95313-2.24121a4.56276,4.56276,0,0,0,1.457.54492c-.30469,2.38477-.86523,3.07325-3.3457,3.07325h-5.8584c-2.73731,0-3.56934-.49708-3.56934-2.59375v-6.626q-.43212.35889-.91211.71973a4.82764,4.82764,0,0,0-1.07226-1.05665,14.62682,14.62682,0,0,0,4.59375-5.02539l1.63281.32032c-.16016.27148-.33691.54394-.5127.81543h3.55372l.28808-.08008,1.00781.65625a16.18852,16.18852,0,0,1-1.44043,2.32129h4.35352v5.90625h-1.52051v-.65625h-8.4834v2.72168c0,.99218.32032,1.20019,2.03321,1.20019Zm-6.5625-10.77246a20.95052,20.95052,0,0,1-1.376,1.60059h3.96972a12.26273,12.26273,0,0,0,1.07227-1.60059Zm-1.3125,5.50586h3.37793v-2.56055h-3.37793Zm8.4834-2.56055H151.749v2.56055h3.63281Z"/><path class="cls-2" d="M172.91792,190.20117c.56055,0,.65625-.17578.72071-1.60058a3.2705,3.2705,0,0,0,1.32812.52832c-.17578,1.95312-.60742,2.38476-1.88867,2.38476h-2.38476c-1.66407,0-2.04883-.40039-2.04883-1.72851v-1.585h-2.0166c-.43262,1.92089-1.64844,2.92968-5.49024,3.4414a4.29616,4.29616,0,0,0-.73633-1.28027c3.3291-.32031,4.33789-.89649,4.70606-2.16113h-1.74512v-6.5625h8.75586v6.5625h-2.0166v1.56933c0,.38379.11133.43164.76758.43164Zm-10.46777-7.42676h-1.376v-3.3291h2.22461a10.1871,10.1871,0,0,0-1.26464-1.69726l1.28027-.57617a9.62956,9.62956,0,0,1,1.48828,1.93652l-.7041.33691h3.10547a11.40072,11.40072,0,0,0-1.12012-2.06543l1.29688-.44824a10.36265,10.36265,0,0,1,1.21582,2.09668l-1.07227.417h2.70508a15.2454,15.2454,0,0,0,1.585-2.40136l1.56836.49609c-.48047.67285-1.02442,1.34473-1.50488,1.90527h2.54492v3.3291H172.998v-2.081H162.45015Zm2.32129.752h5.90625V182.582h-5.90625Zm0,1.84082h5.90625v-.96h-5.90625Zm0,1.88867h5.90625v-.99219h-5.90625Z"/><path class="cls-2" d="M185.50582,183.22266c-.72071.54394-1.47266,1.02441-2.24122,1.5039h6.21v6.835h-1.53614v-.43164h-6.03418v.4961H180.4316v-5.37793c-.89649.416-1.8086.7998-2.72071,1.15234a8.17717,8.17717,0,0,0-.91308-1.23242,28.76216,28.76216,0,0,0,6.25879-2.94531h-5.8584v-1.32911h5.29785v-1.792h-3.90527v-1.29687h3.90527v-1.87305h1.47266v1.87305h3.72949v.7041a17.59026,17.59026,0,0,0,1.74512-2.06445l1.28027.67187a23.15988,23.15988,0,0,1-3.53711,3.77734h4.19336v1.32911Zm2.43261,2.7373h-6.03418v1.32813h6.03418Zm0,3.90527V188.457h-6.03418v1.4082Zm-2.92871-7.97168a22.82726,22.82726,0,0,0,2.09668-1.792h-3.13769v1.792Z"/><path class="cls-2" d="M200.40425,189.38477a8.98254,8.98254,0,0,0,1.40821-.22364,4.55363,4.55363,0,0,0,3.84179-4.498,4.19243,4.19243,0,0,0-3.80957-4.418,36.13431,36.13431,0,0,1-.94433,4.45019c-.96,3.2334-2.27246,5.042-3.85743,5.042-1.56835,0-3.00878-1.77734-3.00878-4.418a6.88872,6.88872,0,0,1,7.09082-6.57911,5.8743,5.8743,0,0,1,6.22656,5.98633c0,3.31348-2.12891,5.61914-6.00293,6.16309Zm-1.12011-5.02539a22.04219,22.04219,0,0,0,.86425-4.082,5.31251,5.31251,0,0,0-4.51367,4.89746c0,1.8252.81641,2.65723,1.45606,2.65723C197.77925,187.832,198.54781,186.80762,199.28414,184.35938Z"/><path class="cls-2" d="M221.46773,190.07324c.624,0,.71973-.25586.78418-2.19336a4.17375,4.17375,0,0,0,1.39258.6084c-.17578,2.40137-.59278,2.99317-2.03321,2.99317h-2.36914c-1.68066,0-2.09668-.44825-2.09668-1.95215v-2.89746h-2.30468c-.36817,2.54492-1.36036,4.17773-5.10645,5.02636a4.59128,4.59128,0,0,0-.84766-1.3125c3.28125-.64062,4.06543-1.80957,4.36915-3.71386h-2.06446V177.46h10.17969v9.17188H218.666v2.89746c0,.47949.11231.54394.75293.54394Zm-8.83594-9.94043h7.23535v-1.34375h-7.23535Zm0,2.57715h7.23535v-1.36035h-7.23535Zm0,2.60938h7.23535v-1.377h-7.23535Z"/><path class="cls-2" d="M235.50972,183.126c-.64062.59277-2.28906,2.09765-2.78515,2.626a1.86812,1.86812,0,0,1,.59179.0791,1.48465,1.48465,0,0,1,1.10449,1.1211c.14454.44824.33692,1.15234.49707,1.61621.15918.56055.52735.81641,1.248.81641a14.60311,14.60311,0,0,0,3.041-.32032l-.09571,1.68067a25.04064,25.04064,0,0,1-3.041.22461c-1.36133,0-2.17774-.30469-2.5293-1.34473-.16015-.48047-.36816-1.32812-.51269-1.76074-.19239-.54395-.51172-.79981-.91211-.79981a1.722,1.722,0,0,0-1.1045.60743,44.72178,44.72178,0,0,0-3.041,3.37792l-1.50488-1.041a7.6714,7.6714,0,0,0,.91308-.832c.71973-.7041,4.57715-4.5459,6.082-6.09864-1.18457.06446-3.50586.25684-4.46582.33594-.51269.04883-.96.11231-1.3125.17676l-.14453-1.76074c.36817.03222.89649.04785,1.42481.04785.84863-.01563,4.48242-.22363,5.74609-.38379a4.001,4.001,0,0,0,.80078-.17676l.94434,1.05664C236.10152,182.62988,235.75,182.93457,235.50972,183.126Zm.52832-4.68946-.208,1.47266c-1.63281-.12793-4.48242-.48047-6.38671-.81641l.24023-1.47265A58.86426,58.86426,0,0,0,236.038,178.43652Z"/><path class="cls-2" d="M248.52925,181.01367c-.04883.78418-.1123,1.585-.209,2.36914h6.24316s-.0166.46387-.04785.6875c-.28808,4.4502-.625,6.22657-1.249,6.88281a1.98865,1.98865,0,0,1-1.50489.6084,25.79182,25.79182,0,0,1-2.70507-.01562,3.07657,3.07657,0,0,0-.51172-1.457c1.10449.09668,2.22461.1123,2.67285.1123a1.0502,1.0502,0,0,0,.76855-.208c.43164-.36816.73633-1.873.96094-5.20214H248.081a9.197,9.197,0,0,1-5.09082,6.915,4.33376,4.33376,0,0,0-1.07227-1.23242c4.35352-2.001,4.78614-5.90625,4.96192-9.46h-4.73731v-1.4248h6.29v-2.72071h1.52051v2.72071h6.43555v1.4248Z"/><line class="cls-17" x1="34.4873" y1="169.3506" x2="329.1162" y2="169.3506"/><path class="cls-2" d="M513.94234,190.07324c1.48828,0,1.74414-.36816,1.95215-2.24121a4.57147,4.57147,0,0,0,1.457.54492c-.30469,2.38477-.86426,3.07325-3.3457,3.07325h-5.8584c-2.73731,0-3.56934-.49708-3.56934-2.59375v-6.626q-.43212.35889-.91211.71973a4.82764,4.82764,0,0,0-1.07226-1.05665,14.617,14.617,0,0,0,4.59375-5.02539l1.63281.32032c-.16016.27148-.33594.54394-.5127.81543h3.55371l.28809-.08008,1.00879.65625a16.28523,16.28523,0,0,1-1.44141,2.32129h4.3545v5.90625h-1.52051v-.65625h-8.48438v2.72168c0,.99218.32031,1.20019,2.03321,1.20019Zm-6.56348-10.77246a20.95052,20.95052,0,0,1-1.376,1.60059h3.96972a12.26273,12.26273,0,0,0,1.07227-1.60059Zm-1.3125,5.50586h3.37793v-2.56055h-3.37793Zm8.48438-2.56055H510.917v2.56055h3.63379Z"/><path class="cls-2" d="M524.25777,188.63281c-1.377.51172-2.833,1.05664-4.002,1.45606l-.51172-1.28028c1.10449-.30371,2.70507-.8164,4.30566-1.32812Zm2.24121-5.05859s-.0166.44824-.03223.65625c-.25586,4.49805-.49609,6.17871-.97656,6.75488a1.41178,1.41178,0,0,1-1.08789.56055,9.91035,9.91035,0,0,1-1.85742.01562,3.09169,3.09169,0,0,0-.38379-1.3125,11.68794,11.68794,0,0,0,1.52051.06446.60551.60551,0,0,0,.54394-.208c.32031-.35254.54395-1.71289.73633-5.23438h-3.34473l-.09668.4961.30469-.22364a8.06235,8.06235,0,0,1,1.64844,1.66407l-.99219.8164a8.47842,8.47842,0,0,0-1.61719-1.76074l.5127-.38379-1.34473-.22461a44.95593,44.95593,0,0,0,.79981-4.5459h3.90625v-1.85644h-4.37012v-1.34473h5.874v4.5459h-4.1289c-.08008.5127-.16016,1.02441-.25586,1.52051Zm4.99414,4.88281c-1.44043.57617-2.96191,1.15235-4.16211,1.584l-.52832-1.26465c1.12109-.33594,2.81738-.87989,4.48242-1.44043Zm2.27246-4.86621s-.01562.44824-.03125.63965c-.16016,4.51465-.36914,6.19531-.84863,6.77148a1.65359,1.65359,0,0,1-1.249.57617,14.955,14.955,0,0,1-2.25683,0,3.17272,3.17272,0,0,0-.416-1.29687c.86426.08008,1.665.08008,2.0166.08008a.74622.74622,0,0,0,.6084-.208c.33594-.35254.5127-1.74512.65625-5.28223h-3.68164l-.1123.52832.40039-.30468a7.44664,7.44664,0,0,1,1.71289,1.68066l-1.02441.833a8.00335,8.00335,0,0,0-1.64844-1.793l.49609-.36816-1.4248-.22364c.30468-1.20117.64062-3.05761.84863-4.51465h4.22559v-1.85644h-4.57813v-1.34473h6.083v4.5459h-4.4502c-.0957.5127-.17578,1.041-.27148,1.53711Z"/><path class="cls-2" d="M544.9941,183.22266c-.72071.54394-1.47266,1.02441-2.24121,1.5039h6.21v6.835h-1.53614v-.43164h-6.03418v.4961h-1.47265v-5.37793c-.89649.416-1.8086.7998-2.72071,1.15234a8.17717,8.17717,0,0,0-.91308-1.23242,28.76216,28.76216,0,0,0,6.25879-2.94531h-5.8584v-1.32911h5.29785v-1.792h-3.90527v-1.29687h3.90527v-1.87305H543.457v1.87305h3.72949v.7041a17.59026,17.59026,0,0,0,1.74512-2.06445l1.28027.67187a23.15945,23.15945,0,0,1-3.53711,3.77734h4.19336v1.32911Zm2.43261,2.7373h-6.03418v1.32813h6.03418Zm0,3.90527V188.457h-6.03418v1.4082Zm-2.92871-7.97168a22.82593,22.82593,0,0,0,2.09668-1.792H543.457v1.792Z"/><path class="cls-2" d="M559.89253,189.38477a8.98254,8.98254,0,0,0,1.40821-.22364,4.55363,4.55363,0,0,0,3.84179-4.498,4.19315,4.19315,0,0,0-3.80957-4.418,36.31436,36.31436,0,0,1-.94433,4.45019c-.96094,3.2334-2.27344,5.042-3.85742,5.042-1.56836,0-3.00977-1.77734-3.00977-4.418a6.889,6.889,0,0,1,7.0918-6.57911,5.87485,5.87485,0,0,1,6.22656,5.98633c0,3.31348-2.12891,5.61914-6.00293,6.16309Zm-1.12109-5.02539a21.96318,21.96318,0,0,0,.86523-4.082,5.31253,5.31253,0,0,0-4.51367,4.89746c0,1.8252.81641,2.65723,1.45606,2.65723C557.26753,187.832,558.03511,186.80762,558.77144,184.35938Z"/><path class="cls-2" d="M580.955,190.07324c.625,0,.72071-.25586.78516-2.19336a4.16515,4.16515,0,0,0,1.39258.6084c-.17676,2.40137-.59277,2.99317-2.0332,2.99317h-2.36915c-1.68066,0-2.09667-.44825-2.09667-1.95215v-2.89746h-2.30469c-.36817,2.54492-1.36035,4.17773-5.10645,5.02636a4.61244,4.61244,0,0,0-.84765-1.3125c3.28125-.64062,4.06445-1.80957,4.36914-3.71386h-2.06446V177.46h10.17969v9.17188h-2.70508v2.89746c0,.47949.11231.54394.752.54394Zm-8.835-9.94043h7.23438v-1.34375h-7.23438Zm0,2.57715h7.23438v-1.36035h-7.23438Zm0,2.60938h7.23438v-1.377h-7.23438Z"/><path class="cls-2" d="M594.998,183.126c-.64062.59277-2.28906,2.09765-2.78515,2.626a1.87554,1.87554,0,0,1,.59179.0791,1.48607,1.48607,0,0,1,1.1045,1.1211c.14355.44824.33593,1.15234.49609,1.61621.16016.56055.52832.81641,1.249.81641a14.60311,14.60311,0,0,0,3.041-.32032l-.0957,1.68067a25.04271,25.04271,0,0,1-3.042.22461c-1.36035,0-2.17675-.30469-2.52832-1.34473-.16015-.48047-.36914-1.32812-.51269-1.76074-.19239-.54395-.5127-.79981-.91211-.79981a1.71978,1.71978,0,0,0-1.10449.60743,44.71936,44.71936,0,0,0-3.041,3.37792l-1.50488-1.041a7.59923,7.59923,0,0,0,.91211-.832c.7207-.7041,4.57812-4.5459,6.083-6.09864-1.18457.06446-3.50585.25684-4.46679.33594-.51172.04883-.96.11231-1.3125.17676l-.14356-1.76074c.36817.03222.89649.04785,1.42481.04785.84765-.01563,4.48144-.22363,5.74609-.38379a4.001,4.001,0,0,0,.80078-.17676l.94434,1.05664C595.5898,182.62988,595.23824,182.93457,594.998,183.126Zm.52735-4.68946-.207,1.47266c-1.63282-.12793-4.48243-.48047-6.38672-.81641l.24023-1.47265A58.87854,58.87854,0,0,0,595.52535,178.43652Z"/><path class="cls-2" d="M608.01656,181.01367c-.04785.78418-.11231,1.585-.208,2.36914h6.24219s-.01563.46387-.04688.6875c-.28906,4.4502-.625,6.22657-1.249,6.88281a1.98863,1.98863,0,0,1-1.50488.6084,25.79241,25.79241,0,0,1-2.70508-.01562,3.07647,3.07647,0,0,0-.51172-1.457c1.10449.09668,2.22461.1123,2.67285.1123a1.05024,1.05024,0,0,0,.76856-.208c.43164-.36816.73632-1.873.96-5.20214h-4.86621a9.19339,9.19339,0,0,1-5.08985,6.915,4.33388,4.33388,0,0,0-1.07226-1.23242c4.35351-2.001,4.78613-5.90625,4.96191-9.46h-4.7373v-1.4248h6.29v-2.72071h1.52051v2.72071h6.43457v1.4248Z"/><line class="cls-17" x1="409.9668" y1="169.3506" x2="704.5957" y2="169.3506"/></svg>